# OBJ written from frame_controller_left_status.obj
# Units	meters

o frame_controller_left_status
v 0.00652757 0.0133995 0.113848
v 0.00644611 0.0128486 0.119755
v 0.00630916 0.0121365 0.125065
v 0.00651815 0.0137851 0.108231
v 0.00340613 0.014139 0.119393
v 0.00357001 0.0145916 0.113542
v 0.00319125 0.0134757 0.12489
v 0.00367162 0.0148469 0.108118
v -0.00745609 0.0143635 0.10923
v -0.0074809 0.0140255 0.114879
v -0.00745264 0.0135001 0.120425
v -0.00735287 0.0127632 0.125598
v -0.0108581 0.0123652 0.109591
v -0.0108955 0.0119158 0.115328
v -0.0108304 0.0113104 0.120962
v -0.0106384 0.0105368 0.126172
v -0.00379429 0.015401 0.108778
v -0.00392727 0.0151319 0.114324
v -0.00401663 0.0146522 0.119918
v -0.00404643 0.0139383 0.125186
v -7.08854e-05 0.0155003 0.108296
v -0.000258584 0.0152898 0.113664
v -0.000461048 0.0148503 0.119427
v -0.000655974 0.0141624 0.124927
v 0.00188563 0.0152385 0.108136
v 0.00172903 0.0150236 0.113483
v 0.00152989 0.0145934 0.119284
v 0.00130216 0.0139259 0.12483
v 0.00816234 0.0128416 0.108293
v 0.00817772 0.0123845 0.113945
v -0.00573562 0.0134668 0.125385
v -0.00920189 0.0124735 0.120662
v -0.00925126 0.0130388 0.115098
v -0.00566988 0.0149988 0.109017
v 0.00513253 0.0143975 0.108172
v 0.00480375 0.0129007 0.124982
v -0.00922204 0.0134388 0.109382
v -0.00577866 0.0141907 0.120178
v -0.00575091 0.0146926 0.11462
v -0.00194322 0.0155585 0.108533
v -0.00210977 0.015323 0.113988
v -0.00905232 0.0117275 0.125816
v 0.0049756 0.013587 0.119578
v 0.00807481 0.0117853 0.119924
v 0.00788156 0.0110812 0.125154
v -0.00226201 0.014863 0.119668
v -0.00237927 0.0141599 0.125051
v 0.00509247 0.0140846 0.113702
v 0.0120185 0.00831908 0.114117
v 0.0117498 0.00765648 0.120301
v 0.0114054 0.00704154 0.12538
v 0.0121514 0.00892398 0.108361
v 0.011012 0.0103652 0.108367
v 0.0121763 0.00549165 0.12541
v 0.0109377 0.00978874 0.114071
v 0.0107309 0.00913074 0.120208
v 0.0128513 0.00673476 0.114136
v 0.0125363 0.00607684 0.120322
v 0.0130588 0.00735896 0.108301
v 0.0104362 0.00848209 0.12532
v 0.00969065 0.0116914 0.108344
v 0.00968604 0.0111615 0.114015
v 0.0095452 0.010516 0.120083
v 0.00929822 0.00982672 0.125245
v 0.00636472 0.0141804 0.103459
v 0.00811787 0.0132671 0.103431
v 7.38356e-05 0.015667 0.10356
v 0.00206695 0.0153934 0.103528
v -0.0107769 0.012745 0.103733
v 0.00384659 0.0150255 0.103499
v 0.00515214 0.0146592 0.103478
v 0.00968307 0.0121973 0.103406
v -0.00179156 0.0157578 0.103589
v -0.00919424 0.0138043 0.103707
v -0.00364026 0.0156477 0.103619
v -0.00560057 0.0152925 0.10365
v -0.00742958 0.0146995 0.103679
v 0.0122621 0.00950933 0.103365
v 0.0110794 0.0109231 0.103384
v 0.0132217 0.00793345 0.10335
v 0.00467569 0.0122958 0.129065
v 0.00307509 0.012859 0.12911
v 0.0011124 0.0133098 0.129147
v 0.00617576 0.011548 0.129004
v -0.000892076 0.0135437 0.129166
v 0.0077288 0.0105123 0.128921
v 0.0119291 0.00511441 0.128484
v 0.0111636 0.00662413 0.128606
v 0.0102249 0.00801007 0.128718
v 0.00913016 0.0092792 0.128821
v -0.0104805 0.0100321 0.128882
v -0.00892323 0.0111948 0.128976
v -0.00722311 0.0122222 0.129059
v -0.00402677 0.0133222 0.129148
v -0.00247318 0.0135341 0.129165
v -0.00568295 0.012875 0.129112
vn -0.286562 0.955764 0.0663109
vn -0.417735 0.905858 0.0701332
vn -0.300507 0.947635 0.108088
vn -0.431755 0.8952 0.110473
vn 0.572794 0.815891 0.078927
vn 0.547351 0.834177 0.0674964
vn 0.476026 0.876188 0.0754623
vn 0.454704 0.888513 0.061549
vn 0.0875138 0.995315 0.0411044
vn 0.17428 0.983733 0.0435438
vn 0.0901016 0.99517 0.038973
vn 0.170665 0.984476 0.0410033
vn -0.441933 0.885531 0.143283
vn -0.535698 0.831603 0.146507
vn -0.448732 0.880002 0.155682
vn -0.542801 0.823909 0.162913
vn -0.527342 0.842157 0.112613
vn -0.563474 0.81824 0.113935
vn -0.57217 0.806469 0.149097
vn -0.0406224 0.99382 0.103301
vn -0.171101 0.97959 0.105492
vn -0.0520493 0.98919 0.137088
vn -0.18318 0.973112 0.139633
vn 0.44018 0.89575 0.0622448
vn 0.530576 0.844782 0.0695155
vn -0.581635 0.795685 0.169074
vn 0.179769 0.97837 0.102345
vn 0.0805902 0.991497 0.10217
vn 0.175673 0.975097 0.135366
vn 0.0732316 0.988036 0.135726
vn -0.0217368 0.998892 0.0417306
vn 0.0844045 0.994521 0.0616731
vn -0.0323367 0.997578 0.0615827
vn -0.0141733 0.999076 0.0405727
vn 0.172619 0.973862 0.147632
vn 0.272223 0.950898 0.147269
vn 0.271323 0.952878 0.135676
vn -0.516962 0.852847 0.0735029
vn -0.506763 0.860393 0.053995
vn -0.399797 0.915078 0.0528638
vn -0.267062 0.962441 0.0488299
vn 0.679291 0.729316 0.0816216
vn 0.693942 0.711894 0.107943
vn 0.767563 0.635452 0.0839496
vn 0.780508 0.616042 0.106302
vn 0.653454 0.753362 0.0737804
vn 0.636651 0.767212 0.0778531
vn 0.700367 0.701566 0.131496
vn 0.702975 0.697539 0.1388
vn 0.786383 0.604586 0.126798
vn 0.788735 0.600161 0.133055
vn -0.311128 0.939754 0.14164
vn 0.817424 0.569804 0.0845051
vn 0.826835 0.556657 0.0804716
vn 0.857513 0.50776 0.0827744
vn 0.865941 0.493781 0.0795391
vn 0.597754 0.790286 0.13468
vn 0.602779 0.784976 0.143076
vn 0.488728 0.865736 0.107919
vn 0.495911 0.85768 0.135858
vn 0.588324 0.801292 0.108661
vn -0.143231 0.988684 0.0445877
vn -0.159326 0.985194 0.0633073
vn 0.732282 0.675837 0.0837116
vn 0.745861 0.661422 0.078819
vn 0.855475 0.503331 0.121738
vn 0.856558 0.499931 0.127974
vn 0.269407 0.957385 0.10409
vn 0.263447 0.962327 0.0672431
vn 0.179472 0.981702 0.0636418
vn 0.851894 0.513349 0.103684
vn 0.347833 0.935918 0.0554006
vn 0.334172 0.940912 0.0548954
vn 0.250625 0.966853 0.048811
vn 0.241364 0.969302 0.0468782
vn 0.0677884 0.986686 0.147837
vn -0.0608601 0.986992 0.148803
vn 0.887307 0.449995 0.100943
vn 0.888496 0.443436 0.118065
vn -0.191592 0.969736 0.151343
vn -0.317399 0.93584 0.153171
vn -0.555167 0.82834 0.0751168
vn -0.549644 0.833672 0.0536881
vn 0.366129 0.927805 0.0716056
vn 0.842451 0.532061 0.084777
vn 0.87987 0.467782 0.0837153
vn -0.132778 0.990155 0.0443003
vn 0.376227 0.920372 0.106625
vn 0.382066 0.914018 0.136373
vn -0.502987 0.862782 0.0511042
vn -0.390154 0.919237 0.0527506
vn 0.888174 0.442253 0.124734
vn -0.255249 0.965623 0.0491901
vn 0.385441 0.910985 0.146772
vn 0.49974 0.853911 0.145242
vn -0.549259 0.834231 0.0487109
vt 0.209844 0.582631
vt 0.143437 0.575271
vt 0.209595 0.363279
vt 0.144444 0.354777
vt 0.734121 0.593103
vt 0.733563 0.812413
vt 0.664565 0.60001
vt 0.664368 0.817572
vt 0.413419 0.819732
vt 0.485088 0.825264
vt 0.406762 1
vt 0.481313 1
vt 0.145651 0.144883
vt 0.0725328 0.138079
vt 0.144826 0
vt 0.0714378 0
vt 0.071591 0.346665
vt 0 0.335569
vt 0 0.129569
vt 0.339003 0.380855
vt 0.275233 0.372257
vt 0.33833 0.165602
vt 0.275888 0.160483
vt 0.663814 1
vt 0.734955 1
vt 0 0
vt 0.47664 0.393235
vt 0.404064 0.38909
vt 0.474401 0.17361
vt 0.402026 0.170409
vt 0.346079 0.811917
vt 0.409342 0.613918
vt 0.342745 0.602967
vt 0.34301 1
vt 0.481195 0
vt 0.552037 0
vt 0.545241 0.170021
vt 0.0709318 0.570167
vt 0.0709164 0.791795
vt 0.142848 0.793176
vt 0.210905 0.797795
vt 0.803734 0.586481
vt 0.805307 0.350511
vt 0.870237 0.579713
vt 0.870927 0.342648
vt 0.802876 0.806882
vt 0.80464 1
vt 0.806942 0.144697
vt 0.804789 0
vt 0.871898 0.138114
vt 0.870703 0
vt 0.210832 0.152828
vt 0.935644 1
vt 0.935856 0.796155
vt 1 1
vt 1 0.790018
vt 0.737554 0.151956
vt 0.735074 0
vt 0.665532 0.369473
vt 0.668572 0.159342
vt 0.735493 0.359902
vt 0.279566 0.804349
vt 0.277124 0.591823
vt 0.870586 1
vt 0.870223 0.8017
vt 0.936112 0.132916
vt 0.935753 0
vt 0.54634 0.387362
vt 0.549725 0.615675
vt 0.481622 0.619488
vt 0.935691 0.337048
vt 0.608682 0.822164
vt 0.60867 1
vt 0.55229 0.825661
vt 0.552198 1
vt 0.406688 0
vt 0.342925 0
vt 1 0.335569
vt 1 0.129569
vt 0.279695 0
vt 0.211211 0
vt 0 0.565405
vt 0 0.790018
vt 0.607436 0.607845
vt 0.935584 0.57262
vt 1 0.565405
vt 0.279786 1
vt 0.606307 0.378524
vt 0.607395 0.165067
vt 0.07128 1
vt 0.144729 1
vt 1 0
vt 0.211198 1
vt 0.608615 0
vt 0.663993 0
vt 0 1
mtllib frame_controller_left_status.mtl
usemtl frame_controller_left
g Default
f 39/1/1 10/2/2 38/3/3
f 11/4/4 38/3/3 10/2/2
f 30/5/5 29/6/6 1/7/7
f 4/8/8 1/7/7 29/6/6
f 21/9/9 25/10/10 67/11/11
f 68/12/12 67/11/11 25/10/10
f 12/13/13 42/14/14 93/15/15
f 92/16/16 93/15/15 42/14/14
f 32/17/17 15/18/18 42/14/14
f 16/19/19 42/14/14 15/18/18
f 46/20/20 19/21/21 47/22/22
f 20/23/23 47/22/22 19/21/21
f 65/24/24 4/8/8 66/25/25
f 29/6/6 66/25/25 4/8/8
f 42/14/14 16/19/19 92/16/16
f 91/26/26 92/16/16 16/19/19
f 27/27/27 23/28/28 28/29/29
f 24/30/30 28/29/29 23/28/28
f 21/9/9 40/31/31 22/32/32
f 41/33/33 22/32/32 40/31/31
f 40/31/31 21/9/9 73/34/34
f 67/11/11 73/34/34 21/9/9
f 83/35/35 82/36/36 28/29/29
f 7/37/37 28/29/29 82/36/36
f 33/38/38 10/2/2 37/39/39
f 9/40/40 37/39/39 10/2/2
f 34/41/41 9/40/40 39/1/1
f 10/2/2 39/1/1 9/40/40
f 62/42/42 63/43/43 55/44/44
f 56/45/45 55/44/44 63/43/43
f 61/46/46 72/47/47 29/6/6
f 66/25/25 29/6/6 72/47/47
f 64/48/48 90/49/49 60/50/50
f 89/51/51 60/50/50 90/49/49
f 38/3/3 11/4/4 31/52/52
f 12/13/13 31/52/52 11/4/4
f 32/17/17 11/4/4 33/38/38
f 10/2/2 33/38/38 11/4/4
f 62/42/42 61/46/46 30/5/5
f 29/6/6 30/5/5 61/46/46
f 78/53/53 52/54/54 80/55/55
f 59/56/56 80/55/55 52/54/54
f 45/57/57 86/58/58 64/48/48
f 90/49/49 64/48/48 86/58/58
f 2/59/59 3/60/60 44/61/61
f 45/57/57 44/61/61 3/60/60
f 40/31/31 17/62/62 41/33/33
f 18/63/63 41/33/33 17/62/62
f 63/43/43 62/42/42 44/61/61
f 30/5/5 44/61/61 62/42/42
f 79/64/64 53/65/65 78/53/53
f 52/54/54 78/53/53 53/65/65
f 60/50/50 89/51/51 51/66/66
f 88/67/67 51/66/66 89/51/51
f 5/68/68 6/69/69 27/27/27
f 26/70/70 27/27/27 6/69/69
f 17/62/62 34/41/41 18/63/63
f 39/1/1 18/63/63 34/41/41
f 61/46/46 62/42/42 53/65/65
f 55/44/44 53/65/65 62/42/42
f 72/47/47 61/46/46 79/64/64
f 53/65/65 79/64/64 61/46/46
f 23/28/28 46/20/20 24/30/30
f 47/22/22 24/30/30 46/20/20
f 44/61/61 30/5/5 2/59/59
f 1/7/7 2/59/59 30/5/5
f 56/45/45 60/50/50 50/71/71
f 51/66/66 50/71/71 60/50/50
f 35/72/72 71/73/73 8/74/74
f 70/75/75 8/74/74 71/73/73
f 24/30/30 47/22/22 85/76/76
f 95/77/77 85/76/76 47/22/22
f 22/32/32 41/33/33 23/28/28
f 46/20/20 23/28/28 41/33/33
f 6/69/69 8/74/74 26/70/70
f 25/10/10 26/70/70 8/74/74
f 50/71/71 51/66/66 58/78/78
f 54/79/79 58/78/78 51/66/66
f 4/8/8 65/24/24 35/72/72
f 71/73/73 35/72/72 65/24/24
f 20/23/23 31/52/52 94/80/80
f 96/81/81 94/80/80 31/52/52
f 14/82/82 33/38/38 13/83/83
f 37/39/39 13/83/83 33/38/38
f 1/7/7 4/8/8 48/84/84
f 35/72/72 48/84/84 4/8/8
f 49/85/85 50/71/71 57/86/86
f 58/78/78 57/86/86 50/71/71
f 17/62/62 40/31/31 75/87/87
f 73/34/34 75/87/87 40/31/31
f 47/22/22 20/23/23 95/77/77
f 94/80/80 95/77/77 20/23/23
f 27/27/27 28/29/29 5/68/68
f 7/37/37 5/68/68 28/29/29
f 26/70/70 22/32/32 27/27/27
f 23/28/28 27/27/27 22/32/32
f 55/44/44 56/45/45 49/85/85
f 50/71/71 49/85/85 56/45/45
f 25/10/10 8/74/74 68/12/12
f 70/75/75 68/12/12 8/74/74
f 85/76/76 83/35/35 24/30/30
f 28/29/29 24/30/30 83/35/35
f 43/88/88 48/84/84 5/68/68
f 6/69/69 5/68/68 48/84/84
f 36/89/89 43/88/88 7/37/37
f 5/68/68 7/37/37 43/88/88
f 44/61/61 45/57/57 63/43/43
f 64/48/48 63/43/43 45/57/57
f 37/39/39 9/40/40 74/90/90
f 77/91/91 74/90/90 9/40/40
f 51/66/66 88/67/67 54/79/79
f 87/92/92 54/79/79 88/67/67
f 19/21/21 38/3/3 20/23/23
f 31/52/52 20/23/23 38/3/3
f 3/60/60 2/59/59 36/89/89
f 43/88/88 36/89/89 2/59/59
f 49/85/85 52/54/54 55/44/44
f 53/65/65 55/44/44 52/54/54
f 9/40/40 34/41/41 77/91/91
f 76/93/93 77/91/91 34/41/41
f 31/52/52 12/13/13 96/81/81
f 93/15/15 96/81/81 12/13/13
f 18/63/63 39/1/1 19/21/21
f 38/3/3 19/21/21 39/1/1
f 41/33/33 18/63/63 46/20/20
f 19/21/21 46/20/20 18/63/63
f 63/43/43 64/48/48 56/45/45
f 60/50/50 56/45/45 64/48/48
f 7/37/37 82/36/36 36/89/89
f 81/94/94 36/89/89 82/36/36
f 2/59/59 1/7/7 43/88/88
f 48/84/84 43/88/88 1/7/7
f 22/32/32 26/70/70 21/9/9
f 25/10/10 21/9/9 26/70/70
f 57/86/86 59/56/56 49/85/85
f 52/54/54 49/85/85 59/56/56
f 75/87/87 76/93/93 17/62/62
f 34/41/41 17/62/62 76/93/93
f 3/60/60 84/95/95 45/57/57
f 86/58/58 45/57/57 84/95/95
f 48/84/84 35/72/72 6/69/69
f 8/74/74 6/69/69 35/72/72
f 11/4/4 32/17/17 12/13/13
f 42/14/14 12/13/13 32/17/17
f 15/18/18 32/17/17 14/82/82
f 33/38/38 14/82/82 32/17/17
f 13/83/83 37/39/39 69/96/96
f 74/90/90 69/96/96 37/39/39
f 36/89/89 81/94/94 3/60/60
f 84/95/95 3/60/60 81/94/94
