<?xml version="1.0" encoding="UTF-8"?>
<svg id="Layer_1" xmlns="http://www.w3.org/2000/svg" baseProfile="tiny" version="1.2" viewBox="0 0 255.24 228.3">
  <!-- Generator: Adobe Illustrator 30.2.1, SVG Export Plug-In . SVG Version: 2.1.1 Build 1)  -->
  <g>
    <rect x="15.1" y="13.58" width="225.05" height="201.15" rx="27.59" ry="27.59" fill="#07060b" stroke="#f7f7f7" stroke-miterlimit="10" stroke-width="1.37"/>
    <rect x="15.1" y="13.58" width="225.05" height="201.15" rx="27.59" ry="27.59" fill="none" stroke="#f7f7f7" stroke-miterlimit="10" stroke-width="1.37"/>
  </g>
  <g>
    <g>
      <path d="M47.88,51.28v-14.73h3.66l4.45,9.61,4.45-9.61h3.66v14.73h-3.57v-7.96l-3.34,7.1h-2.39l-3.34-7.1v7.96h-3.57Z" fill="#f7f7f7"/>
      <path d="M66.59,46.07c0-1.55.53-2.85,1.59-3.88,1.06-1.03,2.4-1.54,4-1.54s2.94.51,4,1.54c1.06,1.03,1.6,2.33,1.6,3.88s-.53,2.84-1.6,3.87c-1.06,1.03-2.4,1.55-4,1.55s-2.94-.52-4-1.55-1.59-2.32-1.59-3.87ZM70.61,47.72c.41.44.94.66,1.58.66s1.17-.22,1.59-.66c.41-.43.62-.99.62-1.65s-.21-1.19-.62-1.63c-.42-.43-.95-.65-1.59-.65s-1.17.22-1.58.65c-.42.43-.63.98-.63,1.63s.21,1.21.63,1.65Z" fill="#f7f7f7"/>
      <path d="M80.03,51.28v-15.28h3.32v5.96c.71-.88,1.76-1.31,3.16-1.31s2.63.51,3.53,1.53c.89,1.03,1.33,2.33,1.33,3.92s-.44,2.86-1.33,3.87c-.9,1.02-2.07,1.53-3.53,1.53-.64,0-1.24-.1-1.79-.28-.55-.18-.98-.43-1.27-.74l-.11.8h-3.31ZM84.03,44.37c-.42.44-.63,1.01-.63,1.7s.21,1.26.63,1.7c.42.44.95.66,1.59.66s1.2-.23,1.65-.67c.43-.44.65-1.01.65-1.69s-.22-1.28-.65-1.71c-.43-.43-.99-.65-1.65-.65s-1.17.22-1.59.66Z" fill="#f7f7f7"/>
      <path d="M95.28,35.78c1.12,0,1.89.76,1.89,1.88,0,.55-.17,1-.52,1.35-.36.35-.81.52-1.37.52-1.1,0-1.87-.77-1.87-1.87s.77-1.88,1.87-1.88ZM93.63,40.86h3.42v10.42h-3.42v-10.42Z" fill="#f7f7f7"/>
      <path d="M103.47,36v15.28h-3.42v-15.28h3.42Z" fill="#f7f7f7"/>
      <path d="M105.72,46.07c0-1.59.49-2.9,1.46-3.91.97-1.01,2.23-1.52,3.8-1.52,1.31,0,2.56.42,3.56,1.23,1,.8,1.65,2.18,1.65,3.86,0,.38-.03.79-.1,1.22h-7.03c.07.53.33.94.77,1.23.44.29.95.43,1.53.43.88,0,1.73-.52,2.33-1.29l2.17,1.91c-.42.66-1.03,1.2-1.82,1.63-.8.43-1.71.64-2.72.64-1.65,0-2.99-.51-4.04-1.52-1.04-1.01-1.56-2.31-1.56-3.91ZM109.06,44.94h3.97c-.01-.42-.21-.79-.59-1.12-.38-.33-.84-.49-1.37-.49-1.14,0-1.89.69-2.02,1.61Z" fill="#f7f7f7"/>
      <path d="M126.67,50.51c-1.18-.66-2.12-1.57-2.8-2.73-.68-1.16-1.03-2.45-1.03-3.87s.35-2.71,1.03-3.87c.68-1.16,1.62-2.06,2.8-2.72,1.18-.65,2.5-.98,3.94-.98,1.31,0,2.57.34,3.78,1,1.19.67,2.13,1.56,2.8,2.68l-2.75,2.03c-.65-.99-1.25-1.62-2.22-2.05-.49-.21-1.03-.31-1.61-.31-1.23,0-2.22.39-2.97,1.18-.76.79-1.14,1.81-1.14,3.05s.38,2.26,1.14,3.05c.75.8,1.75,1.2,2.97,1.2,1.56,0,2.86-.78,3.89-2.34l2.73,2c-.71,1.16-1.64,2.07-2.8,2.71-1.16.65-2.44.98-3.83.98s-2.76-.33-3.94-.99Z" fill="#f7f7f7"/>
      <path d="M138.39,46.07c0-1.55.53-2.85,1.59-3.88,1.06-1.03,2.4-1.54,4-1.54s2.94.51,4,1.54c1.06,1.03,1.59,2.33,1.59,3.88s-.53,2.84-1.59,3.87-2.4,1.55-4,1.55-2.94-.52-4-1.55c-1.06-1.03-1.59-2.32-1.59-3.87ZM142.41,47.72c.41.44.94.66,1.58.66s1.17-.22,1.59-.66c.41-.43.62-.99.62-1.65s-.21-1.19-.62-1.63c-.42-.43-.96-.65-1.59-.65s-1.17.22-1.58.65c-.42.43-.63.98-.63,1.63s.21,1.21.63,1.65Z" fill="#f7f7f7"/>
      <path d="M154.96,51.28h-3.42v-10.42h3.14l.11,1.1c.71-.88,1.91-1.31,3.22-1.31,1.96,0,3.85,1.39,3.85,3.86v6.77h-3.42v-5.79c0-.54-.17-.97-.53-1.27-.36-.29-.76-.44-1.22-.44s-.88.15-1.21.44c-.35.3-.52.73-.52,1.27v5.79Z" fill="#f7f7f7"/>
      <path d="M163.09,43.65v-2.79h1.66v-3.34h3.31v3.34h3.16v2.79h-3.05v3.36c0,.99.51,1.48,1.54,1.48.52,0,1.08-.12,1.68-.36l.24,2.78c-.68.35-1.8.59-2.77.59-1.26,0-2.26-.33-2.99-.97-.75-.64-1.12-1.63-1.12-2.96v-3.92h-1.66Z" fill="#f7f7f7"/>
      <path d="M176.78,51.28h-3.42v-10.42h3.22l.11,1.42c.49-1.03,1.51-1.64,2.72-1.64.4,0,.83.08,1.27.22l-.21,2.98c-.43-.15-.87-.23-1.31-.23-1.42,0-2.39.82-2.39,2.65v5.01Z" fill="#f7f7f7"/>
      <path d="M181.26,46.07c0-1.55.53-2.85,1.59-3.88,1.06-1.03,2.4-1.54,4-1.54s2.94.51,4,1.54c1.06,1.03,1.6,2.33,1.6,3.88s-.53,2.84-1.6,3.87c-1.06,1.03-2.4,1.55-4,1.55s-2.94-.52-4-1.55c-1.06-1.03-1.59-2.32-1.59-3.87ZM185.27,47.72c.41.44.94.66,1.58.66s1.17-.22,1.59-.66c.41-.43.62-.99.62-1.65s-.21-1.19-.62-1.63c-.42-.43-.95-.65-1.59-.65s-1.17.22-1.58.65c-.42.43-.63.98-.63,1.63s.21,1.21.63,1.65Z" fill="#f7f7f7"/>
      <path d="M198.11,36v15.28h-3.42v-15.28h3.42Z" fill="#f7f7f7"/>
      <path d="M202.4,47.42c.79.94,1.69,1.41,2.72,1.41.75,0,1.13-.22,1.13-.64,0-.26-.21-.39-.64-.52-.15-.04-.46-.12-.67-.17-.22-.04-.63-.14-.93-.22-1.01-.26-1.75-.57-2.39-1.1-.65-.51-1-1.25-1-2.17,0-.99.4-1.79,1.19-2.43.79-.63,1.82-.94,3.1-.94.96,0,1.81.2,2.54.6.73.4,1.29.89,1.7,1.44l-2.01,1.7c-.48-.6-1.28-1.1-2.27-1.1-.79,0-1.24.26-1.24.68,0,.38.53.55,2.04.91,1.08.26,1.9.58,2.62,1.08.72.52,1.11,1.28,1.11,2.23s-.41,1.74-1.23,2.35c-.83.62-1.86.93-3.08.93-2.14,0-3.73-.73-4.79-2.19l2.08-1.88Z" fill="#f7f7f7"/>
    </g>
    <g>
      <path d="M46.08,69.83v-2.12h8.47v2.12h-3v8.05h-2.46v-8.05h-3.01Z" fill="#f7f7f7"/>
      <path d="M54.51,77.44c-.5-.4-.76-.93-.76-1.6-.02-1.4,1.42-2.32,3.04-2.29.5,0,.98.06,1.44.19v-.14c0-.58-.51-.97-1.35-.97-.69,0-1.31.33-1.73.8l-1.3-1.4c.35-.39.81-.73,1.36-1.03.55-.3,1.18-.45,1.87-.45,1.09,0,1.96.27,2.58.82s.93,1.3.93,2.25v4.27h-2.24v-.73c-.39.52-1.1.88-1.92.88s-1.42-.19-1.93-.59ZM56.95,76.42c.37,0,.67-.11.92-.34.24-.23.36-.53.36-.91-.28-.13-.62-.19-1.02-.19-.74,0-1.2.26-1.2.72,0,.43.39.72.94.72Z" fill="#f7f7f7"/>
      <path d="M62.58,80.88v-10.19h2.22l.07.76c.49-.61,1.21-.91,2.18-.91s1.81.35,2.44,1.06c.61.71.92,1.61.92,2.7s-.31,1.98-.92,2.67c-.62.7-1.43,1.06-2.44,1.06-.88,0-1.69-.26-2.11-.68v3.53h-2.36ZM65.34,73.11c-.29.31-.43.7-.43,1.18s.14.87.43,1.18c.29.31.66.46,1.1.46s.83-.16,1.14-.46c.3-.31.45-.7.45-1.17s-.15-.88-.45-1.18c-.3-.3-.68-.45-1.14-.45s-.81.15-1.1.46Z" fill="#f7f7f7"/>
      <path d="M74.64,72.62v-1.93h1.15v-2.31h2.28v2.31h2.18v1.93h-2.1v2.32c0,.68.35,1.02,1.06,1.02.36,0,.75-.08,1.16-.25l.16,1.92c-.47.24-1.24.4-1.91.4-.87,0-1.56-.22-2.07-.67-.52-.44-.77-1.12-.77-2.05v-2.7h-1.15Z" fill="#f7f7f7"/>
      <path d="M84.11,77.88h-2.37v-10.55h2.36v3.98c.49-.52,1.19-.77,2.11-.77,1.36,0,2.66.96,2.66,2.67v4.67h-2.36v-4c0-.37-.12-.67-.37-.88-.25-.2-.52-.31-.84-.31s-.61.1-.84.31c-.24.21-.36.5-.36.88v4Z" fill="#f7f7f7"/>
      <path d="M90.34,74.29c0-1.1.34-2,1.01-2.7.67-.7,1.54-1.05,2.62-1.05.91,0,1.77.29,2.46.85.69.55,1.14,1.51,1.14,2.67,0,.26-.02.55-.07.84h-4.85c.04.37.22.65.53.85.31.2.66.3,1.06.3.61,0,1.19-.36,1.61-.89l1.5,1.32c-.29.46-.71.83-1.26,1.12-.55.3-1.18.44-1.88.44-1.14,0-2.07-.35-2.79-1.05s-1.08-1.6-1.08-2.7ZM92.65,73.51h2.74c0-.29-.14-.55-.4-.77s-.58-.34-.94-.34c-.79,0-1.3.48-1.39,1.11Z" fill="#f7f7f7"/>
      <path d="M103.54,75.22c.55.65,1.17.97,1.88.97.52,0,.78-.15.78-.44,0-.18-.14-.27-.44-.36-.1-.03-.31-.08-.46-.12-.15-.03-.43-.1-.64-.15-.7-.18-1.21-.4-1.65-.76-.45-.35-.69-.86-.69-1.5,0-.68.28-1.24.82-1.68.55-.43,1.26-.65,2.14-.65.67,0,1.25.13,1.75.41.5.28.89.61,1.18,1l-1.39,1.18c-.33-.41-.88-.76-1.57-.76-.55,0-.85.18-.85.47,0,.26.37.38,1.41.63.75.18,1.31.4,1.81.75.49.36.76.88.76,1.54s-.28,1.2-.85,1.63c-.57.43-1.28.64-2.13.64-1.48,0-2.58-.5-3.3-1.51l1.44-1.3Z" fill="#f7f7f7"/>
      <path d="M110.53,76.97c-.71-.71-1.07-1.6-1.07-2.68s.37-1.97,1.1-2.68,1.66-1.06,2.76-1.06c.75,0,1.42.18,2.01.54.59.37,1.03.82,1.33,1.39l-1.82,1.3c-.27-.66-.84-1.05-1.52-1.05-.44,0-.81.15-1.09.45-.29.3-.43.67-.43,1.12s.14.84.43,1.14c.28.31.65.46,1.09.46.66,0,1.18-.34,1.57-1.03l1.78,1.3c-.79,1.25-1.93,1.87-3.43,1.87-1.1,0-2.01-.35-2.72-1.06Z" fill="#f7f7f7"/>
      <path d="M120.45,77.88h-2.36v-7.19h2.23l.07.98c.34-.71,1.04-1.13,1.88-1.13.28,0,.57.05.88.15l-.14,2.06c-.3-.1-.6-.16-.91-.16-.98,0-1.65.57-1.65,1.83v3.46Z" fill="#f7f7f7"/>
      <path d="M123.55,74.29c0-1.1.34-2,1.01-2.7.67-.7,1.54-1.05,2.62-1.05.91,0,1.77.29,2.46.85s1.14,1.51,1.14,2.67c0,.26-.02.55-.07.84h-4.85c.04.37.22.65.53.85.31.2.66.3,1.06.3.61,0,1.19-.36,1.61-.89l1.5,1.32c-.29.46-.71.83-1.26,1.12-.55.3-1.18.44-1.88.44-1.14,0-2.07-.35-2.79-1.05s-1.08-1.6-1.08-2.7ZM125.85,73.51h2.74c0-.29-.14-.55-.4-.77s-.58-.34-.94-.34c-.79,0-1.3.48-1.39,1.11Z" fill="#f7f7f7"/>
      <path d="M131.82,74.29c0-1.1.34-2,1.01-2.7.67-.7,1.54-1.05,2.62-1.05.91,0,1.77.29,2.46.85s1.14,1.51,1.14,2.67c0,.26-.02.55-.07.84h-4.85c.04.37.22.65.53.85.31.2.66.3,1.06.3.61,0,1.19-.36,1.61-.89l1.5,1.32c-.29.46-.71.83-1.26,1.12-.55.3-1.18.44-1.88.44-1.14,0-2.07-.35-2.79-1.05-.72-.7-1.08-1.6-1.08-2.7ZM134.12,73.51h2.74c0-.29-.14-.55-.4-.77-.26-.22-.58-.34-.94-.34-.79,0-1.3.48-1.39,1.11Z" fill="#f7f7f7"/>
      <path d="M142.77,77.88h-2.36v-7.19h2.17l.07.76c.49-.61,1.32-.91,2.23-.91,1.36,0,2.66.96,2.66,2.67v4.67h-2.36v-4c0-.37-.12-.67-.37-.88-.25-.2-.52-.31-.84-.31s-.61.1-.84.31c-.24.21-.36.5-.36.88v4Z" fill="#f7f7f7"/>
      <path d="M152,72.62v-1.93h1.15v-2.31h2.29v2.31h2.18v1.93h-2.1v2.32c0,.68.35,1.02,1.06,1.02.36,0,.75-.08,1.16-.25l.17,1.92c-.47.24-1.24.4-1.91.4-.87,0-1.56-.22-2.07-.67-.52-.44-.77-1.12-.77-2.05v-2.7h-1.15Z" fill="#f7f7f7"/>
      <path d="M158.39,74.29c0-1.07.37-1.97,1.1-2.68s1.66-1.06,2.76-1.06,2.03.35,2.76,1.06,1.1,1.61,1.1,2.68-.37,1.96-1.1,2.67c-.73.71-1.66,1.07-2.76,1.07s-2.03-.36-2.76-1.07c-.73-.71-1.1-1.6-1.1-2.67ZM161.17,75.43c.29.31.65.46,1.09.46s.81-.15,1.1-.46c.28-.3.43-.68.43-1.14s-.14-.82-.43-1.12c-.29-.3-.66-.45-1.1-.45s-.81.15-1.09.45c-.29.3-.43.67-.43,1.12s.14.84.43,1.14Z" fill="#f7f7f7"/>
      <path d="M171.19,77.88v-10.55h2.29v4.11c.49-.61,1.21-.91,2.18-.91s1.81.35,2.44,1.06c.61.71.92,1.61.92,2.7s-.31,1.98-.92,2.67c-.62.7-1.43,1.06-2.44,1.06-.44,0-.85-.07-1.24-.19-.38-.13-.67-.3-.88-.51l-.08.55h-2.29ZM173.96,73.11c-.29.31-.43.7-.43,1.18s.14.87.43,1.18.66.46,1.1.46.83-.16,1.14-.46c.3-.31.45-.7.45-1.17s-.15-.88-.45-1.18c-.3-.3-.68-.45-1.14-.45s-.81.15-1.1.46Z" fill="#f7f7f7"/>
      <path d="M180.07,74.29c0-1.1.34-2,1.01-2.7.67-.7,1.54-1.05,2.62-1.05.91,0,1.77.29,2.46.85.69.55,1.14,1.51,1.14,2.67,0,.26-.02.55-.07.84h-4.85c.04.37.22.65.53.85.31.2.66.3,1.06.3.61,0,1.19-.36,1.61-.89l1.5,1.32c-.29.46-.71.83-1.26,1.12-.55.3-1.18.44-1.88.44-1.14,0-2.07-.35-2.79-1.05-.72-.7-1.08-1.6-1.08-2.7ZM182.37,73.51h2.74c0-.29-.14-.55-.4-.77-.26-.22-.58-.34-.94-.34-.79,0-1.3.48-1.39,1.11Z" fill="#f7f7f7"/>
      <path d="M189.78,78.07c.68.65,1.33.94,2.21.94.8,0,1.86-.4,1.86-1.48v-.4c-.49.61-1.2.91-2.12.91s-1.75-.35-2.38-1.06c-.63-.71-.94-1.6-.94-2.67s.32-1.98.94-2.69c.63-.71,1.42-1.06,2.38-1.06s1.63.3,2.12.91l.08-.76h2.29v6.94c0,2.38-2.18,3.4-4.19,3.4-1.53,0-2.81-.58-3.64-1.56l1.4-1.4ZM191.17,73.1c-.29.31-.43.71-.43,1.2s.14.88.43,1.19.66.46,1.12.46.82-.16,1.12-.46c.29-.31.43-.7.43-1.19s-.14-.88-.43-1.19c-.29-.31-.67-.46-1.12-.46-.46,0-.82.15-1.12.46Z" fill="#f7f7f7"/>
      <path d="M199.4,67.18c.77,0,1.3.52,1.3,1.3,0,.38-.12.69-.36.93-.25.24-.56.36-.94.36-.76,0-1.29-.53-1.29-1.29s.53-1.3,1.29-1.3ZM198.26,70.69h2.36v7.19h-2.36v-7.19Z" fill="#f7f7f7"/>
      <path d="M204.86,77.88h-2.36v-7.19h2.17l.08.76c.49-.61,1.32-.91,2.22-.91,1.36,0,2.66.96,2.66,2.67v4.67h-2.36v-4c0-.37-.12-.67-.37-.88-.25-.2-.52-.31-.84-.31s-.61.1-.84.31c-.24.21-.36.5-.36.88v4Z" fill="#f7f7f7"/>
    </g>
    <g>
      <g>
        <path d="M60.65,183.72v-5.35h1.33l1.61,3.49,1.61-3.49h1.33v5.35h-1.3v-2.89l-1.21,2.58h-.87l-1.21-2.58v2.89h-1.3Z" fill="#f7f7f7"/>
        <path d="M67.43,181.83c0-.56.19-1.04.58-1.41.39-.37.87-.56,1.45-.56s1.07.18,1.45.56c.39.37.58.85.58,1.41s-.19,1.03-.58,1.41c-.39.37-.87.56-1.45.56s-1.07-.19-1.45-.56c-.39-.37-.58-.84-.58-1.41ZM68.89,182.43c.15.16.34.24.57.24s.43-.08.58-.24c.15-.16.22-.36.22-.6s-.07-.43-.22-.59c-.15-.16-.35-.24-.58-.24s-.42.08-.57.24c-.15.16-.23.35-.23.59s.07.44.23.6Z" fill="#f7f7f7"/>
        <path d="M73.05,183.72l-1.31-3.78h1.3l.77,2.57.77-2.57h1.3l-1.31,3.78h-1.53Z" fill="#f7f7f7"/>
        <path d="M76.14,181.83c0-.58.18-1.05.53-1.42.35-.37.81-.55,1.38-.55.48,0,.93.15,1.29.44s.6.79.6,1.4c0,.14-.01.29-.04.44h-2.55c.02.19.12.34.28.44.16.11.35.16.56.16.32,0,.63-.19.85-.47l.79.69c-.15.24-.37.44-.66.59-.29.16-.62.23-.99.23-.6,0-1.09-.19-1.46-.55-.38-.37-.57-.84-.57-1.42ZM77.35,181.42h1.44c0-.15-.07-.29-.21-.41s-.3-.18-.5-.18c-.41,0-.69.25-.73.58Z" fill="#f7f7f7"/>
        <path d="M82.69,183.72v-5.35h3.89v1.09h-2.59v1.02h2.04v1.09h-2.04v2.15h-1.3Z" fill="#f7f7f7"/>
        <path d="M86.67,181.83c0-.56.19-1.04.58-1.41.39-.37.87-.56,1.45-.56s1.07.18,1.45.56c.39.37.58.85.58,1.41s-.19,1.03-.58,1.41c-.39.37-.87.56-1.45.56s-1.07-.19-1.45-.56c-.39-.37-.58-.84-.58-1.41ZM88.13,182.43c.15.16.34.24.58.24s.42-.08.58-.24c.15-.16.22-.36.22-.6s-.07-.43-.22-.59c-.15-.16-.35-.24-.58-.24s-.43.08-.58.24c-.15.16-.23.35-.23.59s.07.44.23.6Z" fill="#f7f7f7"/>
        <path d="M92.79,183.72h-1.24v-3.78h1.17l.04.52c.18-.37.55-.59.99-.59.15,0,.3.03.46.08l-.07,1.08c-.16-.06-.31-.08-.48-.08-.52,0-.87.3-.87.96v1.82Z" fill="#f7f7f7"/>
        <path d="M94.39,179.94h1.26l.66,2.49.74-2.41h.97l.73,2.41.66-2.49h1.26l-1.11,3.78h-1.45l-.58-1.89-.58,1.89h-1.45l-1.11-3.78Z" fill="#f7f7f7"/>
        <path d="M101.42,183.49c-.26-.21-.4-.49-.4-.84,0-.74.75-1.22,1.6-1.21.26,0,.52.03.76.1v-.08c0-.3-.27-.51-.71-.51-.36,0-.69.17-.91.42l-.69-.74c.19-.21.43-.39.72-.54.29-.16.62-.24.98-.24.57,0,1.03.14,1.35.43s.49.68.49,1.18v2.24h-1.18v-.39c-.2.27-.58.46-1.01.46s-.75-.1-1.01-.31ZM102.7,182.95c.19,0,.35-.06.48-.18.13-.12.19-.28.19-.48-.15-.07-.33-.1-.54-.1-.39,0-.63.14-.63.38,0,.22.2.38.49.38Z" fill="#f7f7f7"/>
        <path d="M106.89,183.72h-1.24v-3.78h1.17l.04.52c.18-.37.55-.59.99-.59.15,0,.3.03.46.08l-.07,1.08c-.16-.06-.31-.08-.48-.08-.52,0-.87.3-.87.96v1.82Z" fill="#f7f7f7"/>
        <path d="M109.03,183.24c-.33-.37-.49-.83-.49-1.41s.16-1.05.49-1.42c.32-.37.75-.55,1.28-.55s.89.16,1.15.48v-2.16h1.2v5.54h-1.2l-.04-.29c-.22.23-.64.37-1.11.37-.53,0-.95-.19-1.28-.56ZM110.03,182.44c.16.16.35.24.59.24s.43-.08.58-.24c.15-.16.23-.37.23-.62s-.07-.46-.23-.62c-.15-.16-.35-.24-.58-.24s-.44.08-.6.24c-.16.16-.24.37-.24.62s.08.45.24.61Z" fill="#f7f7f7"/>
        <path d="M113.81,182.72h1.23l-.76,2.03h-1.01l.54-2.03Z" fill="#f7f7f7"/>
        <path d="M45.51,193.39v-5.35h2.5c.5,0,.91.13,1.23.38.31.26.47.61.47,1.04,0,.53-.25.93-.74,1.22.59.22.89.64.89,1.24,0,.42-.15.76-.45,1.04s-.71.42-1.22.42h-2.68ZM46.81,190.22h1c.34,0,.55-.25.55-.55,0-.15-.05-.27-.16-.38s-.25-.17-.43-.17h-.96v1.09ZM46.81,192.31h1.05c.18,0,.32-.06.43-.17.11-.11.16-.24.16-.38,0-.15-.05-.28-.16-.39-.11-.11-.25-.16-.43-.16h-1.05v1.1Z" fill="#f7f7f7"/>
        <path d="M50.85,193.16c-.26-.21-.4-.49-.4-.84,0-.74.75-1.22,1.6-1.21.26,0,.52.03.76.1v-.08c0-.3-.27-.51-.71-.51-.36,0-.69.17-.91.42l-.68-.74c.18-.21.42-.39.72-.54.29-.16.62-.24.98-.24.58,0,1.03.14,1.35.43s.49.68.49,1.18v2.24h-1.18v-.39c-.2.27-.58.46-1.01.46s-.75-.1-1.01-.31ZM52.14,192.63c.19,0,.35-.06.48-.18.13-.12.19-.28.19-.48-.15-.07-.33-.1-.54-.1-.39,0-.63.14-.63.38,0,.22.2.38.49.38Z" fill="#f7f7f7"/>
        <path d="M55.37,192.91c-.37-.37-.56-.84-.56-1.41s.19-1.04.58-1.41c.39-.37.87-.56,1.45-.56.39,0,.74.09,1.06.28.31.19.54.43.7.73l-.96.68c-.14-.35-.44-.55-.8-.55-.23,0-.42.08-.57.24-.15.16-.23.35-.23.59s.07.44.23.6c.15.16.34.24.57.24.35,0,.62-.18.83-.54l.94.68c-.41.66-1.02.98-1.8.98-.58,0-1.06-.19-1.43-.56Z" fill="#f7f7f7"/>
        <path d="M59.34,187.85h1.24v2.96l1.19-1.19h1.62l-1.63,1.6,1.7,2.18h-1.51l-1.01-1.41-.34.34v1.07h-1.24v-5.54Z" fill="#f7f7f7"/>
        <path d="M63.52,189.61h1.26l.66,2.49.74-2.41h.97l.73,2.41.66-2.49h1.26l-1.11,3.78h-1.45l-.58-1.89-.58,1.89h-1.45l-1.11-3.78Z" fill="#f7f7f7"/>
        <path d="M70.54,193.16c-.26-.21-.4-.49-.4-.84,0-.74.75-1.22,1.6-1.21.26,0,.52.03.76.1v-.08c0-.3-.27-.51-.71-.51-.36,0-.69.17-.91.42l-.68-.74c.18-.21.42-.39.72-.54.29-.16.62-.24.98-.24.58,0,1.03.14,1.35.43s.49.68.49,1.18v2.24h-1.18v-.39c-.2.27-.58.46-1.01.46s-.75-.1-1.01-.31ZM71.83,192.63c.19,0,.35-.06.48-.18.13-.12.19-.28.19-.48-.15-.07-.33-.1-.54-.1-.39,0-.63.14-.63.38,0,.22.2.38.49.38Z" fill="#f7f7f7"/>
        <path d="M76.02,193.39h-1.24v-3.78h1.17l.04.52c.18-.37.55-.59.99-.59.15,0,.3.03.46.08l-.07,1.08c-.16-.06-.31-.08-.48-.08-.52,0-.87.3-.87.96v1.82Z" fill="#f7f7f7"/>
        <path d="M78.15,192.92c-.33-.37-.49-.83-.49-1.41s.16-1.05.49-1.42c.32-.37.75-.55,1.28-.55s.89.16,1.15.48v-2.16h1.2v5.54h-1.2l-.04-.29c-.22.23-.64.37-1.11.37-.53,0-.95-.19-1.28-.56ZM79.15,192.12c.16.16.35.24.59.24s.43-.08.58-.24c.15-.16.23-.37.23-.62s-.07-.46-.23-.62c-.15-.16-.35-.24-.58-.24s-.44.08-.6.24c-.16.16-.24.37-.24.62s.08.45.24.61Z" fill="#f7f7f7"/>
        <path d="M82.93,192.4h1.23l-.76,2.03h-1.01l.54-2.03Z" fill="#f7f7f7"/>
        <path d="M90.81,192.31v1.09h-4.01v-5.35h1.3v4.26h2.71Z" fill="#f7f7f7"/>
        <path d="M91.11,191.5c0-.58.18-1.05.53-1.42.35-.37.81-.55,1.38-.55.48,0,.93.15,1.29.44s.6.79.6,1.4c0,.14-.01.29-.04.44h-2.55c.02.19.12.34.28.44.16.11.35.16.56.16.32,0,.63-.19.85-.47l.79.69c-.15.24-.37.44-.66.59-.29.16-.62.23-.99.23-.6,0-1.09-.19-1.46-.55-.38-.37-.57-.84-.57-1.42ZM92.32,191.09h1.44c0-.15-.07-.29-.21-.41s-.3-.18-.5-.18c-.41,0-.69.25-.73.58Z" fill="#f7f7f7"/>
        <path d="M95.87,190.63h-.62v-1.01h.62v-.33c0-.41.13-.76.39-1.05.26-.28.71-.46,1.26-.46.26,0,.53.04.81.13l-.13,1.01c-.15-.06-.31-.09-.5-.09-.37,0-.64.16-.64.54v.26h1.05v1.01h-1v2.77h-1.24v-2.77Z" fill="#f7f7f7"/>
        <path d="M98.28,190.63v-1.01h.6v-1.21h1.2v1.21h1.15v1.01h-1.11v1.22c0,.36.19.54.56.54.19,0,.39-.04.61-.13l.09,1.01c-.25.13-.65.21-1,.21-.46,0-.82-.12-1.09-.35-.27-.23-.41-.59-.41-1.07v-1.42h-.6Z" fill="#f7f7f7"/>
        <path d="M103.44,190.14h1.57v-1.51h1.29v1.51h1.58v1.11h-1.58v1.54h-1.29v-1.54h-1.57v-1.11Z" fill="#f7f7f7"/>
        <path d="M111.79,193.39h-1.29v-5.35h2.7c.51,0,.94.16,1.3.49.35.33.53.74.53,1.25,0,.37-.09.7-.28.98-.19.28-.45.49-.77.63l1.12,2h-1.4l-1.01-1.85h-.89v1.84ZM111.79,189.15v1.3h1.13c.48,0,.78-.28.78-.67,0-.37-.3-.63-.78-.63h-1.13Z" fill="#f7f7f7"/>
        <path d="M116.4,187.77c.41,0,.69.28.69.68,0,.2-.06.36-.19.49-.13.13-.3.19-.5.19-.4,0-.68-.28-.68-.68s.28-.68.68-.68ZM115.81,189.61h1.24v3.78h-1.24v-3.78Z" fill="#f7f7f7"/>
        <path d="M118.62,193.49c.36.34.7.49,1.16.49.42,0,.98-.21.98-.78v-.21c-.26.32-.63.48-1.11.48s-.92-.19-1.25-.56c-.33-.37-.5-.84-.5-1.41s.17-1.04.5-1.41c.33-.37.75-.56,1.25-.56s.85.16,1.11.48l.04-.4h1.2v3.65c0,1.25-1.15,1.79-2.2,1.79-.8,0-1.48-.3-1.91-.82l.74-.74ZM119.35,190.88c-.15.16-.23.37-.23.63s.07.46.23.63c.15.16.35.24.59.24s.43-.08.59-.24c.15-.16.23-.37.23-.63s-.07-.46-.22-.63c-.15-.16-.35-.24-.59-.24-.24,0-.43.08-.59.24Z" fill="#f7f7f7"/>
        <path d="M124.31,193.39h-1.24v-5.54h1.24v2.09c.26-.27.63-.41,1.11-.41.71,0,1.4.5,1.4,1.4v2.46h-1.24v-2.1c0-.2-.06-.35-.19-.46-.13-.11-.28-.16-.44-.16s-.32.05-.44.16c-.13.11-.19.26-.19.46v2.1Z" fill="#f7f7f7"/>
        <path d="M127.36,190.63v-1.01h.6v-1.21h1.2v1.21h1.15v1.01h-1.11v1.22c0,.36.18.54.56.54.19,0,.39-.04.61-.13l.09,1.01c-.25.13-.65.21-1,.21-.46,0-.82-.12-1.09-.35-.27-.23-.41-.59-.41-1.07v-1.42h-.6Z" fill="#f7f7f7"/>
      </g>
      <g>
        <path d="M159.38,183.44c-.43-.24-.77-.57-1.02-.99s-.37-.89-.37-1.41.13-.98.37-1.41c.25-.42.59-.75,1.02-.99.43-.24.91-.35,1.43-.35.48,0,.93.12,1.37.36.43.24.77.57,1.02.97l-1,.74c-.24-.36-.45-.59-.81-.74-.18-.08-.37-.11-.58-.11-.45,0-.81.14-1.08.43-.28.29-.41.66-.41,1.11s.14.82.41,1.11c.27.29.63.44,1.08.44.57,0,1.04-.28,1.41-.85l.99.72c-.26.42-.59.75-1.02.98-.42.24-.89.35-1.39.35s-1-.12-1.43-.36Z" fill="#f7f7f7"/>
        <path d="M165.15,183.72h-1.24v-5.54h1.24v2.09c.26-.27.63-.41,1.11-.41.71,0,1.4.5,1.4,1.4v2.46h-1.24v-2.1c0-.2-.06-.35-.19-.46-.13-.11-.28-.16-.44-.16s-.32.05-.44.16c-.13.11-.19.26-.19.46v2.1Z" fill="#f7f7f7"/>
        <path d="M168.84,183.49c-.26-.21-.4-.49-.4-.84,0-.74.75-1.22,1.6-1.21.26,0,.52.03.76.1v-.08c0-.3-.27-.51-.71-.51-.36,0-.69.17-.91.42l-.68-.74c.18-.21.42-.39.72-.54.29-.16.62-.24.98-.24.57,0,1.03.14,1.35.43.33.29.49.68.49,1.18v2.24h-1.18v-.39c-.21.27-.58.46-1.01.46s-.75-.1-1.01-.31ZM170.12,182.95c.19,0,.35-.06.48-.18.13-.12.19-.28.19-.48-.15-.07-.33-.1-.54-.1-.39,0-.63.14-.63.38,0,.22.21.38.49.38Z" fill="#f7f7f7"/>
        <path d="M174.21,183.72h-1.24v-3.78h1.14l.04.4c.26-.32.69-.48,1.17-.48.71,0,1.4.5,1.4,1.4v2.46h-1.24v-2.1c0-.2-.06-.35-.19-.46-.13-.11-.28-.16-.44-.16s-.32.05-.44.16c-.13.11-.19.26-.19.46v2.1Z" fill="#f7f7f7"/>
        <path d="M178.13,183.82c.36.34.7.49,1.16.49.42,0,.98-.21.98-.78v-.21c-.26.32-.63.48-1.11.48s-.92-.19-1.25-.56c-.33-.37-.5-.84-.5-1.41s.17-1.04.5-1.41c.33-.37.75-.56,1.25-.56s.85.16,1.11.48l.04-.4h1.2v3.65c0,1.25-1.15,1.79-2.2,1.79-.8,0-1.48-.3-1.91-.82l.74-.74ZM178.86,181.2c-.15.16-.23.37-.23.63s.08.46.23.63c.15.16.35.24.59.24s.43-.08.59-.24c.15-.16.23-.37.23-.63s-.08-.46-.22-.63c-.15-.16-.35-.24-.59-.24-.24,0-.43.08-.59.24Z" fill="#f7f7f7"/>
        <path d="M182.3,181.83c0-.58.18-1.05.53-1.42.35-.37.81-.55,1.38-.55.48,0,.93.15,1.29.44.36.29.6.79.6,1.4,0,.14-.01.29-.04.44h-2.55c.02.19.12.34.28.44.16.11.35.16.55.16.32,0,.63-.19.85-.47l.79.69c-.15.24-.37.44-.66.59-.29.16-.62.23-.99.23-.6,0-1.09-.19-1.46-.55-.38-.37-.57-.84-.57-1.42ZM183.52,181.42h1.44c0-.15-.07-.29-.21-.41-.14-.12-.3-.18-.5-.18-.41,0-.69.25-.73.58Z" fill="#f7f7f7"/>
        <path d="M153.12,193.12c-.43-.24-.76-.57-1.02-.99-.26-.42-.38-.89-.38-1.41,0-.38.07-.74.22-1.08.15-.34.35-.63.59-.88.5-.48,1.22-.79,1.98-.79.38,0,.74.07,1.09.21.34.15.64.34.89.58.25.24.45.54.59.87.15.34.22.7.22,1.08s-.07.72-.22,1.06c-.15.34-.34.63-.58.88-.25.25-.54.45-.89.59-.35.15-.72.22-1.11.22-.5,0-.96-.12-1.39-.35ZM154.51,189.22c-.42,0-.77.14-1.04.42-.28.28-.42.64-.42,1.07s.14.79.41,1.08c.27.29.62.43,1.05.43s.77-.14,1.05-.42c.28-.28.42-.64.42-1.08s-.14-.79-.42-1.07c-.28-.28-.63-.42-1.05-.42Z" fill="#f7f7f7"/>
        <path d="M159.39,193.39h-1.24v-3.78h1.17l.04.52c.18-.37.55-.59.99-.59.15,0,.3.03.46.08l-.07,1.08c-.16-.06-.32-.08-.48-.08-.52,0-.87.3-.87.96v1.82Z" fill="#f7f7f7"/>
        <path d="M162.04,187.77c.41,0,.69.28.69.68,0,.2-.06.36-.19.49-.13.13-.29.19-.5.19-.4,0-.68-.28-.68-.68s.28-.68.68-.68ZM161.44,189.61h1.24v3.78h-1.24v-3.78Z" fill="#f7f7f7"/>
        <path d="M163.49,191.5c0-.58.18-1.05.53-1.42.35-.37.81-.55,1.38-.55.48,0,.93.15,1.29.44s.6.79.6,1.4c0,.14-.01.29-.04.44h-2.55c.02.19.12.34.28.44.16.11.35.16.55.16.32,0,.63-.19.85-.47l.79.69c-.15.24-.37.44-.66.59-.29.16-.62.23-.99.23-.6,0-1.09-.19-1.46-.55-.38-.37-.57-.84-.57-1.42ZM164.71,191.09h1.44c0-.15-.08-.29-.21-.41s-.3-.18-.5-.18c-.41,0-.68.25-.73.58Z" fill="#f7f7f7"/>
        <path d="M169.24,193.39h-1.24v-3.78h1.14l.04.4c.26-.32.69-.48,1.17-.48.71,0,1.4.5,1.4,1.4v2.46h-1.24v-2.1c0-.2-.06-.35-.19-.46-.13-.11-.28-.16-.44-.16s-.32.05-.44.16c-.13.11-.19.26-.19.46v2.1Z" fill="#f7f7f7"/>
        <path d="M172.19,190.63v-1.01h.6v-1.21h1.2v1.21h1.15v1.01h-1.11v1.22c0,.36.19.54.56.54.19,0,.39-.04.61-.13l.09,1.01c-.25.13-.65.21-1,.21-.46,0-.82-.12-1.09-.35-.27-.23-.41-.59-.41-1.07v-1.42h-.6Z" fill="#f7f7f7"/>
        <path d="M176.07,193.16c-.26-.21-.4-.49-.4-.84,0-.74.75-1.22,1.6-1.21.26,0,.52.03.76.1v-.08c0-.3-.27-.51-.71-.51-.36,0-.69.17-.91.42l-.68-.74c.18-.21.42-.39.72-.54.29-.16.62-.24.98-.24.58,0,1.03.14,1.35.43.33.29.49.68.49,1.18v2.24h-1.18v-.39c-.2.27-.58.46-1.01.46s-.75-.1-1.01-.31ZM177.35,192.63c.19,0,.35-.06.48-.18.13-.12.19-.28.19-.48-.15-.07-.33-.1-.54-.1-.39,0-.63.14-.63.38,0,.22.2.38.49.38Z" fill="#f7f7f7"/>
        <path d="M179.81,190.63v-1.01h.6v-1.21h1.2v1.21h1.15v1.01h-1.11v1.22c0,.36.19.54.56.54.19,0,.39-.04.61-.13l.09,1.01c-.25.13-.65.21-1,.21-.46,0-.82-.12-1.09-.35-.27-.23-.41-.59-.41-1.07v-1.42h-.6Z" fill="#f7f7f7"/>
        <path d="M184.14,187.77c.41,0,.69.28.69.68,0,.2-.06.36-.19.49-.13.13-.29.19-.5.19-.4,0-.68-.28-.68-.68s.28-.68.68-.68ZM183.54,189.61h1.24v3.78h-1.24v-3.78Z" fill="#f7f7f7"/>
        <path d="M185.59,191.5c0-.56.19-1.04.58-1.41s.87-.56,1.45-.56,1.07.18,1.45.56.58.85.58,1.41-.19,1.03-.58,1.41-.87.56-1.45.56-1.07-.19-1.45-.56-.58-.84-.58-1.41ZM187.04,192.1c.15.16.34.24.57.24s.43-.08.58-.24c.15-.16.22-.36.22-.6s-.08-.43-.22-.59c-.15-.16-.35-.24-.58-.24s-.42.08-.57.24c-.15.16-.23.35-.23.59s.07.44.23.6Z" fill="#f7f7f7"/>
        <path d="M191.59,193.39h-1.24v-3.78h1.14l.04.4c.26-.32.69-.48,1.17-.48.71,0,1.4.5,1.4,1.4v2.46h-1.24v-2.1c0-.2-.06-.35-.19-.46-.13-.11-.28-.16-.44-.16s-.32.05-.44.16c-.13.11-.19.26-.19.46v2.1Z" fill="#f7f7f7"/>
      </g>
      <g>
        <g>
          <polygon points="84.05 108.33 87.71 104.67 91.37 108.33 84.05 108.33" fill="#f7f7f7"/>
          <polygon points="91.37 157.24 87.71 160.9 84.05 157.24 91.37 157.24" fill="#f7f7f7"/>
          <polygon points="63.25 136.44 59.59 132.79 63.25 129.13 63.25 136.44" fill="#f7f7f7"/>
          <polygon points="112.16 129.13 115.82 132.79 112.16 136.44 112.16 129.13" fill="#f7f7f7"/>
        </g>
        <circle cx="87.71" cy="132.79" r="31.52" fill="none" stroke="#f7f7f7" stroke-miterlimit="10" stroke-width=".94"/>
        <circle cx="87.71" cy="132.79" r="8.22" fill="#f7f7f7"/>
      </g>
      <g>
        <polygon points="169.3 108.33 172.96 104.67 176.62 108.33 169.3 108.33" fill="#f7f7f7"/>
        <polygon points="176.62 157.24 172.96 160.9 169.3 157.24 176.62 157.24" fill="#f7f7f7"/>
        <polygon points="197.41 129.13 201.07 132.79 197.41 136.44 197.41 129.13" fill="#f7f7f7"/>
        <polygon points="148.5 136.44 144.84 132.79 148.5 129.13 148.5 136.44" fill="#f7f7f7"/>
        <path d="M167.57,125.35l5.7,5.7-1.57-1.57c-.47-.47-1.24-.47-1.71,0s-.48,1.24,0,1.71l1.57,1.57-.71-.71c-.47-.47-1.24-.47-1.71,0s-.48,1.24,0,1.71l1.14,1.14.43.43-.43-.43c-.47-.47-1.24-.47-1.71,0s-.48,1.24,0,1.71l4.43,4.43h0c.76.76,1.76,1.14,2.76,1.14,1.21,0,2.3.49,3.09,1.28,2.85,0,5.15-2.31,5.15-5.15h0s-2.17-2.17-2.17-2.17c.43-1.62.02-3.41-1.24-4.68l-4.26-6.37c-1.11.74-1.42,2.25-.67,3.36h0s1.81,2.71,1.81,2.71l-.31.31-7.83-7.83c-.47-.47-1.24-.47-1.71,0-.47.47-.48,1.24,0,1.71Z" fill="#f7f7f7"/>
      </g>
    </g>
  </g>
</svg>