<?xml version="1.0" encoding="UTF-8"?>
<svg id="Layer_1" xmlns="http://www.w3.org/2000/svg" baseProfile="tiny" version="1.2" viewBox="0 0 255.24 228.3">
  <!-- Generator: Adobe Illustrator 30.2.1, SVG Export Plug-In . SVG Version: 2.1.1 Build 1)  -->
  <g>
    <rect x="15.1" y="5.87" width="225.05" height="217.15" rx="27.59" ry="27.59" fill="#07060b" stroke="#f7f7f7" stroke-miterlimit="10" stroke-width="1.37"/>
    <rect x="15.1" y="5.87" width="225.05" height="217.15" rx="27.59" ry="27.59" fill="none" stroke="#f7f7f7" stroke-miterlimit="10" stroke-width="1.37"/>
  </g>
  <g>
    <g>
      <path d="M47.88,43.57v-14.73h3.66l4.45,9.61,4.45-9.61h3.66v14.73h-3.57v-7.96l-3.34,7.1h-2.39l-3.34-7.1v7.96h-3.58Z" fill="#f7f7f7"/>
      <path d="M66.59,38.36c0-1.55.53-2.85,1.59-3.88,1.06-1.03,2.4-1.54,4-1.54s2.94.51,4,1.54c1.06,1.03,1.6,2.33,1.6,3.88s-.53,2.84-1.6,3.87c-1.06,1.03-2.4,1.55-4,1.55s-2.94-.52-4-1.55-1.59-2.32-1.59-3.87ZM70.61,40.01c.41.44.94.66,1.58.66s1.17-.22,1.59-.66c.41-.43.62-.99.62-1.65s-.21-1.19-.62-1.63c-.42-.43-.95-.65-1.59-.65s-1.17.22-1.58.65c-.42.43-.63.98-.63,1.63s.21,1.21.63,1.65Z" fill="#f7f7f7"/>
      <path d="M80.03,43.57v-15.28h3.32v5.96c.71-.88,1.76-1.31,3.16-1.31s2.63.51,3.53,1.53c.89,1.03,1.33,2.33,1.33,3.92s-.44,2.86-1.33,3.87c-.9,1.02-2.07,1.53-3.53,1.53-.64,0-1.24-.1-1.79-.28s-.98-.43-1.27-.74l-.11.8s-3.31,0-3.31,0ZM84.03,36.66c-.42.44-.63,1.01-.63,1.7s.21,1.26.63,1.7c.42.44.95.66,1.59.66s1.2-.23,1.65-.67c.43-.44.65-1.01.65-1.69s-.22-1.28-.65-1.71-.99-.65-1.65-.65-1.17.22-1.59.66Z" fill="#f7f7f7"/>
      <path d="M95.28,28.07c1.12,0,1.89.76,1.89,1.88,0,.55-.17,1-.52,1.35-.36.35-.81.52-1.37.52-1.1,0-1.87-.77-1.87-1.87s.77-1.88,1.87-1.88ZM93.63,33.15h3.42v10.42h-3.42v-10.42Z" fill="#f7f7f7"/>
      <path d="M103.47,28.29v15.28h-3.42v-15.28h3.42Z" fill="#f7f7f7"/>
      <path d="M105.72,38.36c0-1.59.49-2.9,1.46-3.91s2.23-1.52,3.8-1.52c1.31,0,2.56.42,3.56,1.23,1,.8,1.65,2.18,1.65,3.86,0,.38-.03.79-.1,1.22h-7.03c.07.53.33.94.77,1.23.44.29.95.43,1.53.43.88,0,1.73-.52,2.33-1.29l2.17,1.91c-.42.66-1.03,1.2-1.82,1.63-.8.43-1.71.64-2.72.64-1.65,0-2.99-.51-4.04-1.52-1.04-1.01-1.56-2.31-1.56-3.91ZM109.06,37.23h3.97c-.01-.42-.21-.79-.59-1.12-.38-.33-.84-.49-1.37-.49-1.14,0-1.89.69-2.02,1.61h0Z" fill="#f7f7f7"/>
      <path d="M126.67,42.8c-1.18-.66-2.12-1.57-2.8-2.73s-1.03-2.45-1.03-3.87.35-2.71,1.03-3.87,1.62-2.06,2.8-2.72c1.18-.65,2.5-.98,3.94-.98,1.31,0,2.57.34,3.78,1,1.19.67,2.13,1.56,2.8,2.68l-2.75,2.03c-.65-.99-1.25-1.62-2.22-2.05-.49-.21-1.03-.31-1.61-.31-1.23,0-2.22.39-2.97,1.18-.76.79-1.14,1.81-1.14,3.05s.38,2.26,1.14,3.05c.75.8,1.75,1.2,2.97,1.2,1.56,0,2.86-.78,3.89-2.34l2.73,2c-.71,1.16-1.64,2.07-2.8,2.71-1.16.65-2.44.98-3.83.98s-2.76-.33-3.94-.99v-.02Z" fill="#f7f7f7"/>
      <path d="M138.39,38.36c0-1.55.53-2.85,1.59-3.88,1.06-1.03,2.4-1.54,4-1.54s2.94.51,4,1.54c1.06,1.03,1.59,2.33,1.59,3.88s-.53,2.84-1.59,3.87-2.4,1.55-4,1.55-2.94-.52-4-1.55-1.59-2.32-1.59-3.87ZM142.41,40.01c.41.44.94.66,1.58.66s1.17-.22,1.59-.66c.41-.43.62-.99.62-1.65s-.21-1.19-.62-1.63c-.42-.43-.96-.65-1.59-.65s-1.17.22-1.58.65c-.42.43-.63.98-.63,1.63s.21,1.21.63,1.65Z" fill="#f7f7f7"/>
      <path d="M154.96,43.57h-3.42v-10.42h3.14l.11,1.1c.71-.88,1.91-1.31,3.22-1.31,1.96,0,3.85,1.39,3.85,3.86v6.77h-3.42v-5.79c0-.54-.17-.97-.53-1.27-.36-.29-.76-.44-1.22-.44s-.88.15-1.21.44c-.35.3-.52.73-.52,1.27v5.79Z" fill="#f7f7f7"/>
      <path d="M163.09,35.94v-2.79h1.66v-3.34h3.31v3.34h3.16v2.79h-3.05v3.36c0,.99.51,1.48,1.54,1.48.52,0,1.08-.12,1.68-.36l.24,2.78c-.68.35-1.8.59-2.77.59-1.26,0-2.26-.33-2.99-.97-.75-.64-1.12-1.63-1.12-2.96v-3.92h-1.66,0Z" fill="#f7f7f7"/>
      <path d="M176.78,43.57h-3.42v-10.42h3.22l.11,1.42c.49-1.03,1.51-1.64,2.72-1.64.4,0,.83.08,1.27.22l-.21,2.98c-.43-.15-.87-.23-1.31-.23-1.42,0-2.39.82-2.39,2.65v5.01h0Z" fill="#f7f7f7"/>
      <path d="M181.26,38.36c0-1.55.53-2.85,1.59-3.88,1.06-1.03,2.4-1.54,4-1.54s2.94.51,4,1.54c1.06,1.03,1.6,2.33,1.6,3.88s-.53,2.84-1.6,3.87c-1.06,1.03-2.4,1.55-4,1.55s-2.94-.52-4-1.55-1.59-2.32-1.59-3.87ZM185.27,40.01c.41.44.94.66,1.58.66s1.17-.22,1.59-.66c.41-.43.62-.99.62-1.65s-.21-1.19-.62-1.63c-.42-.43-.95-.65-1.59-.65s-1.17.22-1.58.65c-.42.43-.63.98-.63,1.63s.21,1.21.63,1.65Z" fill="#f7f7f7"/>
      <path d="M198.11,28.29v15.28h-3.42v-15.28h3.42Z" fill="#f7f7f7"/>
      <path d="M202.4,39.71c.79.94,1.69,1.41,2.72,1.41.75,0,1.13-.22,1.13-.64,0-.26-.21-.39-.64-.52-.15-.04-.46-.12-.67-.17-.22-.04-.63-.14-.93-.22-1.01-.26-1.75-.57-2.39-1.1-.65-.51-1-1.25-1-2.17,0-.99.4-1.79,1.19-2.43.79-.63,1.82-.94,3.1-.94.96,0,1.81.2,2.54.6.73.4,1.29.89,1.7,1.44l-2.01,1.7c-.48-.6-1.28-1.1-2.27-1.1-.79,0-1.24.26-1.24.68,0,.38.53.55,2.04.91,1.08.26,1.9.58,2.62,1.08.72.52,1.11,1.28,1.11,2.23s-.41,1.74-1.23,2.35c-.83.62-1.86.93-3.08.93-2.14,0-3.73-.73-4.79-2.19l2.08-1.88.02.03Z" fill="#f7f7f7"/>
    </g>
    <g>
      <path d="M46.08,62.12v-2.12h8.47v2.12h-3v8.05h-2.46v-8.05h-3.01Z" fill="#f7f7f7"/>
      <path d="M54.51,69.73c-.5-.4-.76-.93-.76-1.6-.02-1.4,1.42-2.32,3.04-2.29.5,0,.98.06,1.44.19v-.14c0-.58-.51-.97-1.35-.97-.69,0-1.31.33-1.73.8l-1.3-1.4c.35-.39.81-.73,1.36-1.03.55-.3,1.18-.45,1.87-.45,1.09,0,1.96.27,2.58.82s.93,1.3.93,2.25v4.27h-2.24v-.73c-.39.52-1.1.88-1.92.88s-1.42-.19-1.93-.59h0ZM56.95,68.71c.37,0,.67-.11.92-.34.24-.23.36-.53.36-.91-.28-.13-.62-.19-1.02-.19-.74,0-1.2.26-1.2.72,0,.43.39.72.94.72Z" fill="#f7f7f7"/>
      <path d="M62.58,73.17v-10.19h2.22l.07.76c.49-.61,1.21-.91,2.18-.91s1.81.35,2.44,1.06c.61.71.92,1.61.92,2.7s-.31,1.98-.92,2.67c-.62.7-1.43,1.06-2.44,1.06-.88,0-1.69-.26-2.11-.68v3.53h-2.36ZM65.34,65.4c-.29.31-.43.7-.43,1.18s.14.87.43,1.18.66.46,1.1.46.83-.16,1.14-.46c.3-.31.45-.7.45-1.17s-.15-.88-.45-1.18c-.3-.3-.68-.45-1.14-.45s-.81.15-1.1.46v-.02Z" fill="#f7f7f7"/>
      <path d="M74.64,64.91v-1.93h1.15v-2.31h2.28v2.31h2.18v1.93h-2.1v2.32c0,.68.35,1.02,1.06,1.02.36,0,.75-.08,1.16-.25l.16,1.92c-.47.24-1.24.4-1.91.4-.87,0-1.56-.22-2.07-.67-.52-.44-.77-1.12-.77-2.05v-2.7h-1.15,0Z" fill="#f7f7f7"/>
      <path d="M84.11,70.17h-2.37v-10.55h2.36v3.98c.49-.52,1.19-.77,2.11-.77,1.36,0,2.66.96,2.66,2.67v4.67h-2.36v-4c0-.37-.12-.67-.37-.88-.25-.2-.52-.31-.84-.31s-.61.1-.84.31c-.24.21-.36.5-.36.88v4h0Z" fill="#f7f7f7"/>
      <path d="M90.34,66.58c0-1.1.34-2,1.01-2.7.67-.7,1.54-1.05,2.62-1.05.91,0,1.77.29,2.46.85.69.55,1.14,1.51,1.14,2.67,0,.26-.02.55-.07.84h-4.85c.04.37.22.65.53.85s.66.3,1.06.3c.61,0,1.19-.36,1.61-.89l1.5,1.32c-.29.46-.71.83-1.26,1.12-.55.3-1.18.44-1.88.44-1.14,0-2.07-.35-2.79-1.05s-1.08-1.6-1.08-2.7ZM92.65,65.8h2.74c0-.29-.14-.55-.4-.77s-.58-.34-.94-.34c-.79,0-1.3.48-1.39,1.11h0Z" fill="#f7f7f7"/>
      <path d="M103.54,67.51c.55.65,1.17.97,1.88.97.52,0,.78-.15.78-.44,0-.18-.14-.27-.44-.36-.1-.03-.31-.08-.46-.12-.15-.03-.43-.1-.64-.15-.7-.18-1.21-.4-1.65-.76-.45-.35-.69-.86-.69-1.5,0-.68.28-1.24.82-1.68.55-.43,1.26-.65,2.14-.65.67,0,1.25.13,1.75.41.5.28.89.61,1.18,1l-1.39,1.18c-.33-.41-.88-.76-1.57-.76-.55,0-.85.18-.85.47,0,.26.37.38,1.41.63.75.18,1.31.4,1.81.75.49.36.76.88.76,1.54s-.28,1.2-.85,1.63-1.28.64-2.13.64c-1.48,0-2.58-.5-3.3-1.51l1.44-1.3h0Z" fill="#f7f7f7"/>
      <path d="M110.53,69.26c-.71-.71-1.07-1.6-1.07-2.68s.37-1.97,1.1-2.68,1.66-1.06,2.76-1.06c.75,0,1.42.18,2.01.54.59.37,1.03.82,1.33,1.39l-1.82,1.3c-.27-.66-.84-1.05-1.52-1.05-.44,0-.81.15-1.09.45-.29.3-.43.67-.43,1.12s.14.84.43,1.14c.28.31.65.46,1.09.46.66,0,1.18-.34,1.57-1.03l1.78,1.3c-.79,1.25-1.93,1.87-3.43,1.87-1.1,0-2.01-.35-2.72-1.06h0Z" fill="#f7f7f7"/>
      <path d="M120.45,70.17h-2.36v-7.19h2.23l.07.98c.34-.71,1.04-1.13,1.88-1.13.28,0,.57.05.88.15l-.14,2.06c-.3-.1-.6-.16-.91-.16-.98,0-1.65.57-1.65,1.83,0,0,0,3.46,0,3.46Z" fill="#f7f7f7"/>
      <path d="M123.55,66.58c0-1.1.34-2,1.01-2.7.67-.7,1.54-1.05,2.62-1.05.91,0,1.77.29,2.46.85s1.14,1.51,1.14,2.67c0,.26-.02.55-.07.84h-4.85c.04.37.22.65.53.85s.66.3,1.06.3c.61,0,1.19-.36,1.61-.89l1.5,1.32c-.29.46-.71.83-1.26,1.12-.55.3-1.18.44-1.88.44-1.14,0-2.07-.35-2.79-1.05s-1.08-1.6-1.08-2.7ZM125.85,65.8h2.74c0-.29-.14-.55-.4-.77s-.58-.34-.94-.34c-.79,0-1.3.48-1.39,1.11h-.01Z" fill="#f7f7f7"/>
      <path d="M131.82,66.58c0-1.1.34-2,1.01-2.7s1.54-1.05,2.62-1.05c.91,0,1.77.29,2.46.85s1.14,1.51,1.14,2.67c0,.26-.02.55-.07.84h-4.85c.04.37.22.65.53.85s.66.3,1.06.3c.61,0,1.19-.36,1.61-.89l1.5,1.32c-.29.46-.71.83-1.26,1.12-.55.3-1.18.44-1.88.44-1.14,0-2.07-.35-2.79-1.05-.72-.7-1.08-1.6-1.08-2.7h0ZM134.12,65.8h2.74c0-.29-.14-.55-.4-.77-.26-.22-.58-.34-.94-.34-.79,0-1.3.48-1.39,1.11h-.01Z" fill="#f7f7f7"/>
      <path d="M142.77,70.17h-2.36v-7.19h2.17l.07.76c.49-.61,1.32-.91,2.23-.91,1.36,0,2.66.96,2.66,2.67v4.67h-2.36v-4c0-.37-.12-.67-.37-.88-.25-.2-.52-.31-.84-.31s-.61.1-.84.31c-.24.21-.36.5-.36.88v4h0Z" fill="#f7f7f7"/>
      <path d="M152,64.91v-1.93h1.15v-2.31h2.29v2.31h2.18v1.93h-2.1v2.32c0,.68.35,1.02,1.06,1.02.36,0,.75-.08,1.16-.25l.17,1.92c-.47.24-1.24.4-1.91.4-.87,0-1.56-.22-2.07-.67-.52-.44-.77-1.12-.77-2.05v-2.7h-1.16Z" fill="#f7f7f7"/>
      <path d="M158.39,66.58c0-1.07.37-1.97,1.1-2.68s1.66-1.06,2.76-1.06,2.03.35,2.76,1.06,1.1,1.61,1.1,2.68-.37,1.96-1.1,2.67c-.73.71-1.66,1.07-2.76,1.07s-2.03-.36-2.76-1.07-1.1-1.6-1.1-2.67ZM161.17,67.72c.29.31.65.46,1.09.46s.81-.15,1.1-.46c.28-.3.43-.68.43-1.14s-.14-.82-.43-1.12-.66-.45-1.1-.45-.81.15-1.09.45c-.29.3-.43.67-.43,1.12s.14.84.43,1.14Z" fill="#f7f7f7"/>
      <path d="M171.19,70.17v-10.55h2.29v4.11c.49-.61,1.21-.91,2.18-.91s1.81.35,2.44,1.06c.61.71.92,1.61.92,2.7s-.31,1.98-.92,2.67c-.62.7-1.43,1.06-2.44,1.06-.44,0-.85-.07-1.24-.19-.38-.13-.67-.3-.88-.51l-.08.55h-2.29.02ZM173.96,65.4c-.29.31-.43.7-.43,1.18s.14.87.43,1.18.66.46,1.1.46.83-.16,1.14-.46c.3-.31.45-.7.45-1.17s-.15-.88-.45-1.18-.68-.45-1.14-.45-.81.15-1.1.46v-.02Z" fill="#f7f7f7"/>
      <path d="M180.07,66.58c0-1.1.34-2,1.01-2.7s1.54-1.05,2.62-1.05c.91,0,1.77.29,2.46.85.69.55,1.14,1.51,1.14,2.67,0,.26-.02.55-.07.84h-4.85c.04.37.22.65.53.85s.66.3,1.06.3c.61,0,1.19-.36,1.61-.89l1.5,1.32c-.29.46-.71.83-1.26,1.12-.55.3-1.18.44-1.88.44-1.14,0-2.07-.35-2.79-1.05-.72-.7-1.08-1.6-1.08-2.7h0ZM182.37,65.8h2.74c0-.29-.14-.55-.4-.77-.26-.22-.58-.34-.94-.34-.79,0-1.3.48-1.39,1.11h-.01Z" fill="#f7f7f7"/>
      <path d="M189.78,70.36c.68.65,1.33.94,2.21.94.8,0,1.86-.4,1.86-1.48v-.4c-.49.61-1.2.91-2.12.91s-1.75-.35-2.38-1.06-.94-1.6-.94-2.67.32-1.98.94-2.69c.63-.71,1.42-1.06,2.38-1.06s1.63.3,2.12.91l.08-.76h2.29v6.94c0,2.38-2.18,3.4-4.19,3.4-1.53,0-2.81-.58-3.64-1.56l1.4-1.4v-.02ZM191.17,65.39c-.29.31-.43.71-.43,1.2s.14.88.43,1.19.66.46,1.12.46.82-.16,1.12-.46c.29-.31.43-.7.43-1.19s-.14-.88-.43-1.19c-.29-.31-.67-.46-1.12-.46s-.82.15-1.12.46h0Z" fill="#f7f7f7"/>
      <path d="M199.4,59.47c.77,0,1.3.52,1.3,1.3,0,.38-.12.69-.36.93-.25.24-.56.36-.94.36-.76,0-1.29-.53-1.29-1.29s.53-1.3,1.29-1.3ZM198.26,62.98h2.36v7.19h-2.36v-7.19Z" fill="#f7f7f7"/>
      <path d="M204.86,70.17h-2.36v-7.19h2.17l.08.76c.49-.61,1.32-.91,2.22-.91,1.36,0,2.66.96,2.66,2.67v4.67h-2.36v-4c0-.37-.12-.67-.37-.88-.25-.2-.52-.31-.84-.31s-.61.1-.84.31c-.24.21-.36.5-.36.88v4h0Z" fill="#f7f7f7"/>
    </g>
    <g>
      <g>
        <path d="M60.65,176.01v-5.35h1.33l1.61,3.49,1.61-3.49h1.33v5.35h-1.3v-2.89l-1.21,2.58h-.87l-1.21-2.58v2.89h-1.3,0Z" fill="#f7f7f7"/>
        <path d="M67.43,174.12c0-.56.19-1.04.58-1.41.39-.37.87-.56,1.45-.56s1.07.18,1.45.56c.39.37.58.85.58,1.41s-.19,1.03-.58,1.41c-.39.37-.87.56-1.45.56s-1.07-.19-1.45-.56c-.39-.37-.58-.84-.58-1.41ZM68.89,174.72c.15.16.34.24.57.24s.43-.08.58-.24.22-.36.22-.6-.07-.43-.22-.59-.35-.24-.58-.24-.42.08-.57.24-.23.35-.23.59.07.44.23.6Z" fill="#f7f7f7"/>
        <path d="M73.05,176.01l-1.31-3.78h1.3l.77,2.57.77-2.57h1.3l-1.31,3.78h-1.53,0Z" fill="#f7f7f7"/>
        <path d="M76.14,174.12c0-.58.18-1.05.53-1.42s.81-.55,1.38-.55c.48,0,.93.15,1.29.44s.6.79.6,1.4c0,.14-.01.29-.04.44h-2.55c.02.19.12.34.28.44.16.11.35.16.56.16.32,0,.63-.19.85-.47l.79.69c-.15.24-.37.44-.66.59-.29.16-.62.23-.99.23-.6,0-1.09-.19-1.46-.55-.38-.37-.57-.84-.57-1.42v.02ZM77.35,173.71h1.44c0-.15-.07-.29-.21-.41s-.3-.18-.5-.18c-.41,0-.69.25-.73.58h0Z" fill="#f7f7f7"/>
        <path d="M82.69,176.01v-5.35h3.89v1.09h-2.59v1.02h2.04v1.09h-2.04v2.15h-1.3Z" fill="#f7f7f7"/>
        <path d="M86.67,174.12c0-.56.19-1.04.58-1.41.39-.37.87-.56,1.45-.56s1.07.18,1.45.56c.39.37.58.85.58,1.41s-.19,1.03-.58,1.41c-.39.37-.87.56-1.45.56s-1.07-.19-1.45-.56c-.39-.37-.58-.84-.58-1.41ZM88.13,174.72c.15.16.34.24.58.24s.42-.08.58-.24c.15-.16.22-.36.22-.6s-.07-.43-.22-.59-.35-.24-.58-.24-.43.08-.58.24-.23.35-.23.59.07.44.23.6Z" fill="#f7f7f7"/>
        <path d="M92.79,176.01h-1.24v-3.78h1.17l.04.52c.18-.37.55-.59.99-.59.15,0,.3.03.46.08l-.07,1.08c-.16-.06-.31-.08-.48-.08-.52,0-.87.3-.87.96v1.82h0Z" fill="#f7f7f7"/>
        <path d="M94.39,172.23h1.26l.66,2.49.74-2.41h.97l.73,2.41.66-2.49h1.26l-1.11,3.78h-1.45l-.58-1.89-.58,1.89h-1.45l-1.11-3.78h0Z" fill="#f7f7f7"/>
        <path d="M101.42,175.78c-.26-.21-.4-.49-.4-.84,0-.74.75-1.22,1.6-1.21.26,0,.52.03.76.1v-.08c0-.3-.27-.51-.71-.51-.36,0-.69.17-.91.42l-.69-.74c.19-.21.43-.39.72-.54.29-.16.62-.24.98-.24.57,0,1.03.14,1.35.43s.49.68.49,1.18v2.24h-1.18v-.39c-.2.27-.58.46-1.01.46s-.75-.1-1.01-.31v.03ZM102.7,175.24c.19,0,.35-.06.48-.18.13-.12.19-.28.19-.48-.15-.07-.33-.1-.54-.1-.39,0-.63.14-.63.38,0,.22.2.38.49.38h0Z" fill="#f7f7f7"/>
        <path d="M106.89,176.01h-1.24v-3.78h1.17l.04.52c.18-.37.55-.59.99-.59.15,0,.3.03.46.08l-.07,1.08c-.16-.06-.31-.08-.48-.08-.52,0-.87.3-.87.96v1.82h0Z" fill="#f7f7f7"/>
        <path d="M109.03,175.53c-.33-.37-.49-.83-.49-1.41s.16-1.05.49-1.42c.32-.37.75-.55,1.28-.55s.89.16,1.15.48v-2.16h1.2v5.54h-1.2l-.04-.29c-.22.23-.64.37-1.11.37-.53,0-.95-.19-1.28-.56h0ZM110.03,174.73c.16.16.35.24.59.24s.43-.08.58-.24.23-.37.23-.62-.07-.46-.23-.62c-.15-.16-.35-.24-.58-.24s-.44.08-.6.24c-.16.16-.24.37-.24.62s.08.45.24.61h.01Z" fill="#f7f7f7"/>
        <path d="M113.81,175.01h1.23l-.76,2.03h-1.01l.54-2.03Z" fill="#f7f7f7"/>
        <path d="M45.51,185.68v-5.35h2.5c.5,0,.91.13,1.23.38.31.26.47.61.47,1.04,0,.53-.25.93-.74,1.22.59.22.89.64.89,1.24,0,.42-.15.76-.45,1.04s-.71.42-1.22.42h-2.68,0ZM46.81,182.51h1c.34,0,.55-.25.55-.55,0-.15-.05-.27-.16-.38s-.25-.17-.43-.17h-.96v1.09h0ZM46.81,184.6h1.05c.18,0,.32-.06.43-.17s.16-.24.16-.38c0-.15-.05-.28-.16-.39s-.25-.16-.43-.16h-1.05v1.1Z" fill="#f7f7f7"/>
        <path d="M50.85,185.45c-.26-.21-.4-.49-.4-.84,0-.74.75-1.22,1.6-1.21.26,0,.52.03.76.1v-.08c0-.3-.27-.51-.71-.51-.36,0-.69.17-.91.42l-.68-.74c.18-.21.42-.39.72-.54.29-.16.62-.24.98-.24.58,0,1.03.14,1.35.43s.49.68.49,1.18v2.24h-1.18v-.39c-.2.27-.58.46-1.01.46s-.75-.1-1.01-.31v.03ZM52.14,184.92c.19,0,.35-.06.48-.18s.19-.28.19-.48c-.15-.07-.33-.1-.54-.1-.39,0-.63.14-.63.38,0,.22.2.38.49.38h.01Z" fill="#f7f7f7"/>
        <path d="M55.37,185.2c-.37-.37-.56-.84-.56-1.41s.19-1.04.58-1.41c.39-.37.87-.56,1.45-.56.39,0,.74.09,1.06.28.31.19.54.43.7.73l-.96.68c-.14-.35-.44-.55-.8-.55-.23,0-.42.08-.57.24s-.23.35-.23.59.07.44.23.6c.15.16.34.24.57.24.35,0,.62-.18.83-.54l.94.68c-.41.66-1.02.98-1.8.98-.58,0-1.06-.19-1.43-.56h-.01Z" fill="#f7f7f7"/>
        <path d="M59.34,180.14h1.24v2.96l1.19-1.19h1.62l-1.63,1.6,1.7,2.18h-1.51l-1.01-1.41-.34.34v1.07h-1.24v-5.54h-.02Z" fill="#f7f7f7"/>
        <path d="M63.52,181.9h1.26l.66,2.49.74-2.41h.97l.73,2.41.66-2.49h1.26l-1.11,3.78h-1.45l-.58-1.89-.58,1.89h-1.45l-1.11-3.78h0Z" fill="#f7f7f7"/>
        <path d="M70.54,185.45c-.26-.21-.4-.49-.4-.84,0-.74.75-1.22,1.6-1.21.26,0,.52.03.76.1v-.08c0-.3-.27-.51-.71-.51-.36,0-.69.17-.91.42l-.68-.74c.18-.21.42-.39.72-.54.29-.16.62-.24.98-.24.58,0,1.03.14,1.35.43s.49.68.49,1.18v2.24h-1.18v-.39c-.2.27-.58.46-1.01.46s-.75-.1-1.01-.31v.03ZM71.83,184.92c.19,0,.35-.06.48-.18.13-.12.19-.28.19-.48-.15-.07-.33-.1-.54-.1-.39,0-.63.14-.63.38,0,.22.2.38.49.38h0Z" fill="#f7f7f7"/>
        <path d="M76.02,185.68h-1.24v-3.78h1.17l.04.52c.18-.37.55-.59.99-.59.15,0,.3.03.46.08l-.07,1.08c-.16-.06-.31-.08-.48-.08-.52,0-.87.3-.87.96v1.82h0Z" fill="#f7f7f7"/>
        <path d="M78.15,185.21c-.33-.37-.49-.83-.49-1.41s.16-1.05.49-1.42c.32-.37.75-.55,1.28-.55s.89.16,1.15.48v-2.16h1.2v5.54h-1.2l-.04-.29c-.22.23-.64.37-1.11.37-.53,0-.95-.19-1.28-.56h0ZM79.15,184.41c.16.16.35.24.59.24s.43-.08.58-.24.23-.37.23-.62-.07-.46-.23-.62c-.15-.16-.35-.24-.58-.24s-.44.08-.6.24c-.16.16-.24.37-.24.62s.08.45.24.61h.01Z" fill="#f7f7f7"/>
        <path d="M82.93,184.69h1.23l-.76,2.03h-1.01l.54-2.03Z" fill="#f7f7f7"/>
        <path d="M90.81,184.6v1.09h-4.01v-5.35h1.3v4.26h2.71Z" fill="#f7f7f7"/>
        <path d="M91.11,183.79c0-.58.18-1.05.53-1.42s.81-.55,1.38-.55c.48,0,.93.15,1.29.44s.6.79.6,1.4c0,.14-.01.29-.04.44h-2.55c.02.19.12.34.28.44.16.11.35.16.56.16.32,0,.63-.19.85-.47l.79.69c-.15.24-.37.44-.66.59-.29.16-.62.23-.99.23-.6,0-1.09-.19-1.46-.55-.38-.37-.57-.84-.57-1.42v.02ZM92.32,183.38h1.44c0-.15-.07-.29-.21-.41s-.3-.18-.5-.18c-.41,0-.69.25-.73.58h0Z" fill="#f7f7f7"/>
        <path d="M95.87,182.92h-.62v-1.01h.62v-.33c0-.41.13-.76.39-1.05.26-.28.71-.46,1.26-.46.26,0,.53.04.81.13l-.13,1.01c-.15-.06-.31-.09-.5-.09-.37,0-.64.16-.64.54v.26h1.05v1.01h-1v2.77h-1.24v-2.77h0Z" fill="#f7f7f7"/>
        <path d="M98.28,182.92v-1.01h.6v-1.21h1.2v1.21h1.15v1.01h-1.11v1.22c0,.36.19.54.56.54.19,0,.39-.04.61-.13l.09,1.01c-.25.13-.65.21-1,.21-.46,0-.82-.12-1.09-.35-.27-.23-.41-.59-.41-1.07v-1.42h-.6,0Z" fill="#f7f7f7"/>
        <path d="M103.44,182.43h1.57v-1.51h1.29v1.51h1.58v1.11h-1.58v1.54h-1.29v-1.54h-1.57v-1.11Z" fill="#f7f7f7"/>
        <path d="M111.79,185.68h-1.29v-5.35h2.7c.51,0,.94.16,1.3.49.35.33.53.74.53,1.25,0,.37-.09.7-.28.98s-.45.49-.77.63l1.12,2h-1.4l-1.01-1.85h-.89v1.84h-.01ZM111.79,181.44v1.3h1.13c.48,0,.78-.28.78-.67s-.3-.63-.78-.63h-1.13Z" fill="#f7f7f7"/>
        <path d="M116.4,180.06c.41,0,.69.28.69.68,0,.2-.06.36-.19.49-.13.13-.3.19-.5.19-.4,0-.68-.28-.68-.68s.28-.68.68-.68h0ZM115.81,181.9h1.24v3.78h-1.24v-3.78Z" fill="#f7f7f7"/>
        <path d="M118.62,185.78c.36.34.7.49,1.16.49.42,0,.98-.21.98-.78v-.21c-.26.32-.63.48-1.11.48s-.92-.19-1.25-.56-.5-.84-.5-1.41.17-1.04.5-1.41c.33-.37.75-.56,1.25-.56s.85.16,1.11.48l.04-.4h1.2v3.65c0,1.25-1.15,1.79-2.2,1.79-.8,0-1.48-.3-1.91-.82l.74-.74h-.01ZM119.35,183.17c-.15.16-.23.37-.23.63s.07.46.23.63c.15.16.35.24.59.24s.43-.08.59-.24c.15-.16.23-.37.23-.63s-.07-.46-.22-.63c-.15-.16-.35-.24-.59-.24s-.43.08-.59.24h-.01Z" fill="#f7f7f7"/>
        <path d="M124.31,185.68h-1.24v-5.54h1.24v2.09c.26-.27.63-.41,1.11-.41.71,0,1.4.5,1.4,1.4v2.46h-1.24v-2.1c0-.2-.06-.35-.19-.46-.13-.11-.28-.16-.44-.16s-.32.05-.44.16c-.13.11-.19.26-.19.46v2.1h0Z" fill="#f7f7f7"/>
        <path d="M127.36,182.92v-1.01h.6v-1.21h1.2v1.21h1.15v1.01h-1.11v1.22c0,.36.18.54.56.54.19,0,.39-.04.61-.13l.09,1.01c-.25.13-.65.21-1,.21-.46,0-.82-.12-1.09-.35-.27-.23-.41-.59-.41-1.07v-1.42h-.6,0Z" fill="#f7f7f7"/>
      </g>
      <g>
        <path d="M159.38,175.73c-.43-.24-.77-.57-1.02-.99s-.37-.89-.37-1.41.13-.98.37-1.41c.25-.42.59-.75,1.02-.99.43-.24.91-.35,1.43-.35.48,0,.93.12,1.37.36.43.24.77.57,1.02.97l-1,.74c-.24-.36-.45-.59-.81-.74-.18-.08-.37-.11-.58-.11-.45,0-.81.14-1.08.43-.28.29-.41.66-.41,1.11s.14.82.41,1.11.63.44,1.08.44c.57,0,1.04-.28,1.41-.85l.99.72c-.26.42-.59.75-1.02.98-.42.24-.89.35-1.39.35s-1-.12-1.43-.36h0Z" fill="#f7f7f7"/>
        <path d="M165.15,176.01h-1.24v-5.54h1.24v2.09c.26-.27.63-.41,1.11-.41.71,0,1.4.5,1.4,1.4v2.46h-1.24v-2.1c0-.2-.06-.35-.19-.46s-.28-.16-.44-.16-.32.05-.44.16c-.13.11-.19.26-.19.46v2.1h0Z" fill="#f7f7f7"/>
        <path d="M168.84,175.78c-.26-.21-.4-.49-.4-.84,0-.74.75-1.22,1.6-1.21.26,0,.52.03.76.1v-.08c0-.3-.27-.51-.71-.51-.36,0-.69.17-.91.42l-.68-.74c.18-.21.42-.39.72-.54.29-.16.62-.24.98-.24.57,0,1.03.14,1.35.43.33.29.49.68.49,1.18v2.24h-1.18v-.39c-.21.27-.58.46-1.01.46s-.75-.1-1.01-.31v.03ZM170.12,175.24c.19,0,.35-.06.48-.18.13-.12.19-.28.19-.48-.15-.07-.33-.1-.54-.1-.39,0-.63.14-.63.38,0,.22.21.38.49.38h0Z" fill="#f7f7f7"/>
        <path d="M174.21,176.01h-1.24v-3.78h1.14l.04.4c.26-.32.69-.48,1.17-.48.71,0,1.4.5,1.4,1.4v2.46h-1.24v-2.1c0-.2-.06-.35-.19-.46s-.28-.16-.44-.16-.32.05-.44.16c-.13.11-.19.26-.19.46v2.1h0Z" fill="#f7f7f7"/>
        <path d="M178.13,176.11c.36.34.7.49,1.16.49.42,0,.98-.21.98-.78v-.21c-.26.32-.63.48-1.11.48s-.92-.19-1.25-.56-.5-.84-.5-1.41.17-1.04.5-1.41c.33-.37.75-.56,1.25-.56s.85.16,1.11.48l.04-.4h1.2v3.65c0,1.25-1.15,1.79-2.2,1.79-.8,0-1.48-.3-1.91-.82l.74-.74h0ZM178.86,173.49c-.15.16-.23.37-.23.63s.08.46.23.63c.15.16.35.24.59.24s.43-.08.59-.24c.15-.16.23-.37.23-.63s-.08-.46-.22-.63c-.15-.16-.35-.24-.59-.24s-.43.08-.59.24h0Z" fill="#f7f7f7"/>
        <path d="M182.3,174.12c0-.58.18-1.05.53-1.42s.81-.55,1.38-.55c.48,0,.93.15,1.29.44.36.29.6.79.6,1.4,0,.14,0,.29-.04.44h-2.55c.02.19.12.34.28.44.16.11.35.16.55.16.32,0,.63-.19.85-.47l.79.69c-.15.24-.37.44-.66.59-.29.16-.62.23-.99.23-.6,0-1.09-.19-1.46-.55-.38-.37-.57-.84-.57-1.42v.02ZM183.52,173.71h1.44c0-.15-.07-.29-.21-.41-.14-.12-.3-.18-.5-.18-.41,0-.69.25-.73.58h0Z" fill="#f7f7f7"/>
        <path d="M153.12,185.41c-.43-.24-.76-.57-1.02-.99-.26-.42-.38-.89-.38-1.41,0-.38.07-.74.22-1.08s.35-.63.59-.88c.5-.48,1.22-.79,1.98-.79.38,0,.74.07,1.09.21.34.15.64.34.89.58s.45.54.59.87c.15.34.22.7.22,1.08s-.07.72-.22,1.06-.34.63-.58.88c-.25.25-.54.45-.89.59-.35.15-.72.22-1.11.22-.5,0-.96-.12-1.39-.35h.01ZM154.51,181.51c-.42,0-.77.14-1.04.42-.28.28-.42.64-.42,1.07s.14.79.41,1.08c.27.29.62.43,1.05.43s.77-.14,1.05-.42.42-.64.42-1.08-.14-.79-.42-1.07c-.28-.28-.63-.42-1.05-.42h0Z" fill="#f7f7f7"/>
        <path d="M159.39,185.68h-1.24v-3.78h1.17l.04.52c.18-.37.55-.59.99-.59.15,0,.3.03.46.08l-.07,1.08c-.16-.06-.32-.08-.48-.08-.52,0-.87.3-.87.96v1.82h0Z" fill="#f7f7f7"/>
        <path d="M162.04,180.06c.41,0,.69.28.69.68,0,.2-.06.36-.19.49s-.29.19-.5.19c-.4,0-.68-.28-.68-.68s.28-.68.68-.68h0ZM161.44,181.9h1.24v3.78h-1.24v-3.78Z" fill="#f7f7f7"/>
        <path d="M163.49,183.79c0-.58.18-1.05.53-1.42s.81-.55,1.38-.55c.48,0,.93.15,1.29.44s.6.79.6,1.4c0,.14,0,.29-.04.44h-2.55c.02.19.12.34.28.44.16.11.35.16.55.16.32,0,.63-.19.85-.47l.79.69c-.15.24-.37.44-.66.59-.29.16-.62.23-.99.23-.6,0-1.09-.19-1.46-.55-.38-.37-.57-.84-.57-1.42v.02ZM164.71,183.38h1.44c0-.15-.08-.29-.21-.41s-.3-.18-.5-.18c-.41,0-.68.25-.73.58h0Z" fill="#f7f7f7"/>
        <path d="M169.24,185.68h-1.24v-3.78h1.14l.04.4c.26-.32.69-.48,1.17-.48.71,0,1.4.5,1.4,1.4v2.46h-1.24v-2.1c0-.2-.06-.35-.19-.46s-.28-.16-.44-.16-.32.05-.44.16c-.13.11-.19.26-.19.46v2.1h0Z" fill="#f7f7f7"/>
        <path d="M172.19,182.92v-1.01h.6v-1.21h1.2v1.21h1.15v1.01h-1.11v1.22c0,.36.19.54.56.54.19,0,.39-.04.61-.13l.09,1.01c-.25.13-.65.21-1,.21-.46,0-.82-.12-1.09-.35-.27-.23-.41-.59-.41-1.07v-1.42h-.6,0Z" fill="#f7f7f7"/>
        <path d="M176.07,185.45c-.26-.21-.4-.49-.4-.84,0-.74.75-1.22,1.6-1.21.26,0,.52.03.76.1v-.08c0-.3-.27-.51-.71-.51-.36,0-.69.17-.91.42l-.68-.74c.18-.21.42-.39.72-.54.29-.16.62-.24.98-.24.58,0,1.03.14,1.35.43.33.29.49.68.49,1.18v2.24h-1.18v-.39c-.2.27-.58.46-1.01.46s-.75-.1-1.01-.31v.03ZM177.35,184.92c.19,0,.35-.06.48-.18.13-.12.19-.28.19-.48-.15-.07-.33-.1-.54-.1-.39,0-.63.14-.63.38,0,.22.2.38.49.38h0Z" fill="#f7f7f7"/>
        <path d="M179.81,182.92v-1.01h.6v-1.21h1.2v1.21h1.15v1.01h-1.11v1.22c0,.36.19.54.56.54.19,0,.39-.04.61-.13l.09,1.01c-.25.13-.65.21-1,.21-.46,0-.82-.12-1.09-.35-.27-.23-.41-.59-.41-1.07v-1.42h-.6,0Z" fill="#f7f7f7"/>
        <path d="M184.14,180.06c.41,0,.69.28.69.68,0,.2-.06.36-.19.49s-.29.19-.5.19c-.4,0-.68-.28-.68-.68s.28-.68.68-.68h0ZM183.54,181.9h1.24v3.78h-1.24v-3.78Z" fill="#f7f7f7"/>
        <path d="M185.59,183.79c0-.56.19-1.04.58-1.41s.87-.56,1.45-.56,1.07.18,1.45.56.58.85.58,1.41-.19,1.03-.58,1.41-.87.56-1.45.56-1.07-.19-1.45-.56-.58-.84-.58-1.41ZM187.04,184.39c.15.16.34.24.57.24s.43-.08.58-.24c.15-.16.22-.36.22-.6s-.08-.43-.22-.59c-.15-.16-.35-.24-.58-.24s-.42.08-.57.24c-.15.16-.23.35-.23.59s.07.44.23.6Z" fill="#f7f7f7"/>
        <path d="M191.59,185.68h-1.24v-3.78h1.14l.04.4c.26-.32.69-.48,1.17-.48.71,0,1.4.5,1.4,1.4v2.46h-1.24v-2.1c0-.2-.06-.35-.19-.46s-.28-.16-.44-.16-.32.05-.44.16c-.13.11-.19.26-.19.46v2.1h0Z" fill="#f7f7f7"/>
      </g>
      <g>
        <g>
          <polygon points="84.05 100.62 87.71 96.96 91.37 100.62 84.05 100.62" fill="#f7f7f7"/>
          <polygon points="91.37 149.53 87.71 153.19 84.05 149.53 91.37 149.53" fill="#f7f7f7"/>
          <polygon points="63.25 128.73 59.59 125.08 63.25 121.42 63.25 128.73" fill="#f7f7f7"/>
          <polygon points="112.16 121.42 115.82 125.08 112.16 128.73 112.16 121.42" fill="#f7f7f7"/>
        </g>
        <circle cx="87.71" cy="125.08" r="31.52" fill="none" stroke="#f7f7f7" stroke-miterlimit="10" stroke-width=".94"/>
        <circle cx="87.71" cy="125.08" r="8.22" fill="#f7f7f7"/>
      </g>
      <g>
        <polygon points="169.3 100.62 172.96 96.96 176.62 100.62 169.3 100.62" fill="#f7f7f7"/>
        <polygon points="176.62 149.53 172.96 153.19 169.3 149.53 176.62 149.53" fill="#f7f7f7"/>
        <polygon points="197.41 121.42 201.07 125.08 197.41 128.73 197.41 121.42" fill="#f7f7f7"/>
        <polygon points="148.5 128.73 144.84 125.08 148.5 121.42 148.5 128.73" fill="#f7f7f7"/>
        <path d="M167.57,117.64l5.7,5.7-1.57-1.57c-.47-.47-1.24-.47-1.71,0s-.48,1.24,0,1.71l1.57,1.57-.71-.71c-.47-.47-1.24-.47-1.71,0s-.48,1.24,0,1.71l1.14,1.14.43.43-.43-.43c-.47-.47-1.24-.47-1.71,0s-.48,1.24,0,1.71l4.43,4.43h0c.76.76,1.76,1.14,2.76,1.14,1.21,0,2.3.49,3.09,1.28,2.85,0,5.15-2.31,5.15-5.15h0l-2.17-2.17c.43-1.62.02-3.41-1.24-4.68l-4.26-6.37c-1.11.74-1.42,2.25-.67,3.36h0l1.81,2.71-.31.31-7.83-7.83c-.47-.47-1.24-.47-1.71,0s-.48,1.24,0,1.71h-.05Z" fill="#f7f7f7"/>
      </g>
    </g>
  </g>
  <g>
    <path d="M47.36,201.76l-.05,1.4,1.28-.47.25.77-1.33.38.93,1.18-.65.48-.83-1.23-.83,1.23-.65-.48.93-1.18-1.33-.38.25-.77,1.27.47-.05-1.4h.81Z" fill="#f7f7f7"/>
    <path d="M50.64,206.99c.35.72,1.02,1.18,1.93,1.18.41,0,.76-.09,1.03-.27.27-.18.41-.42.41-.73,0-.27-.12-.5-.37-.66-.24-.16-.65-.34-1.23-.52-.3-.1-.56-.19-.77-.27-.21-.08-.42-.18-.64-.3-.22-.12-.4-.25-.53-.39-.25-.27-.44-.67-.44-1.15.02-1.28,1.21-1.96,2.39-1.96.61,0,1.12.13,1.55.41.43.27.75.62.97,1.04l-.84.59c-.17-.3-.39-.55-.68-.75-.29-.2-.62-.29-1-.29-.36,0-.66.09-.92.26-.25.17-.38.41-.38.7,0,.59.53.77,1.44,1.08.06.02.08.03.13.04.67.23,1.13.41,1.39.55.5.27.82.63.94,1.07.05.17.07.35.07.55,0,.64-.33,1.18-.81,1.5-.48.32-1.09.49-1.71.49-.66,0-1.24-.15-1.72-.44-.49-.29-.84-.68-1.05-1.15l.81-.56Z" fill="#f7f7f7"/>
    <path d="M56.23,202.41c0-.19.06-.34.18-.46.12-.12.27-.18.46-.18s.34.06.46.18c.12.12.18.27.18.46s-.06.34-.18.46-.27.18-.46.18-.34-.06-.46-.18-.18-.27-.18-.46ZM57.38,209.04h-1.02v-4.97h1.02v4.97Z" fill="#f7f7f7"/>
    <path d="M59.32,208.41c-.48-.49-.71-1.11-.71-1.87s.24-1.37.71-1.85c.47-.48,1.07-.71,1.78-.71.77,0,1.36.26,1.77.78v-.68h1.02v4.58c0,.78-.25,1.41-.74,1.87-.49.46-1.16.69-1.99.69-.91,0-1.76-.38-2.32-1.07l.67-.67c.49.53,1.04.8,1.67.8.51,0,.92-.13,1.23-.41.31-.27.46-.64.46-1.09v-.42c-.4.52-.99.78-1.77.78-.71,0-1.3-.25-1.78-.74ZM60.08,205.36c-.29.32-.44.7-.44,1.17s.15.87.44,1.2c.29.33.68.5,1.15.5s.86-.17,1.17-.5c.31-.33.46-.73.46-1.2s-.16-.85-.46-1.17c-.31-.32-.7-.47-1.17-.47s-.85.16-1.15.47Z" fill="#f7f7f7"/>
    <path d="M66.47,209.04h-1.02v-4.97h1.03v.63c.1-.15.24-.29.49-.46.24-.16.62-.27,1.04-.27.67,0,1.18.19,1.54.56.36.38.54.88.54,1.5v3.02h-1.02v-2.8c0-.82-.45-1.3-1.22-1.3-.39,0-.72.11-.98.35-.26.23-.39.55-.39.95v2.8Z" fill="#f7f7f7"/>
    <path d="M73.9,202.41c0-.19.06-.34.18-.46.12-.12.27-.18.46-.18s.34.06.46.18c.12.12.18.27.18.46s-.06.34-.18.46-.27.18-.46.18-.34-.06-.46-.18c-.12-.12-.18-.27-.18-.46ZM75.05,209.04h-1.02v-4.97h1.02v4.97Z" fill="#f7f7f7"/>
    <path d="M77.64,209.04h-1.02v-4.97h1.03v.63c.1-.15.24-.29.49-.46.24-.16.62-.27,1.04-.27.67,0,1.18.19,1.54.56.36.38.54.88.54,1.5v3.02h-1.02v-2.8c0-.82-.45-1.3-1.22-1.3-.39,0-.72.11-.98.35-.26.23-.39.55-.39.95v2.8Z" fill="#f7f7f7"/>
    <path d="M85.49,204.95h-.88v-.87h.9v-1.59h1v1.59h1.58v.87h-1.57v2.48c0,.52.29.79.81.79.27,0,.54-.06.81-.17l.13.88c-.28.14-.64.22-1.09.22-.52,0-.94-.14-1.24-.42-.31-.28-.46-.67-.46-1.17v-2.61Z" fill="#f7f7f7"/>
    <path d="M91.39,209.15c-.75,0-1.38-.25-1.88-.75-.5-.5-.76-1.11-.76-1.84s.25-1.34.76-1.84c.5-.5,1.13-.75,1.88-.75s1.38.25,1.88.75c.5.5.75,1.11.75,1.84s-.25,1.34-.75,1.84c-.5.5-1.13.75-1.88.75ZM89.78,206.56c0,.46.16.85.46,1.16.31.31.69.47,1.15.47s.85-.16,1.16-.47c.31-.31.46-.7.46-1.16s-.15-.85-.46-1.16c-.3-.31-.69-.46-1.16-.46s-.85.15-1.15.46c-.3.31-.46.7-.46,1.16Z" fill="#f7f7f7"/>
    <path d="M98.03,204.71c.48-.49,1.09-.73,1.84-.73,1.42-.02,2.42,1.09,2.39,2.41,0,.18-.02.34-.04.48h-3.85c.03.38.18.69.47.95.29.25.65.38,1.07.38.64,0,1.13-.28,1.49-.85l.76.55c-.22.4-.54.71-.95.93-.41.22-.84.33-1.3.33-.75,0-1.37-.25-1.86-.74s-.74-1.1-.74-1.84.24-1.37.72-1.86ZM101.22,206.09c-.03-.35-.18-.64-.43-.86-.26-.22-.57-.33-.93-.33-.38,0-.7.11-.97.33-.27.22-.43.51-.5.86h2.83Z" fill="#f7f7f7"/>
    <path d="M102.63,209.04l1.87-2.53-1.83-2.43h1.18l1.29,1.75,1.29-1.75h1.18l-1.83,2.43,1.87,2.53h-1.18l-1.33-1.86-1.33,1.86h-1.18Z" fill="#f7f7f7"/>
    <path d="M108.56,211.11v-7.04h1.02v.68c.41-.52,1-.78,1.77-.78.71,0,1.3.24,1.78.73.48.49.71,1.12.71,1.88s-.24,1.37-.71,1.85c-.48.48-1.07.71-1.79.71-.77,0-1.36-.26-1.77-.78v2.75h-1.02ZM110.06,207.75c.31.32.7.48,1.17.48s.85-.16,1.15-.47.44-.7.44-1.17-.15-.87-.44-1.2c-.29-.33-.68-.49-1.15-.49s-.86.17-1.17.5c-.32.33-.47.73-.47,1.19s.16.85.47,1.16Z" fill="#f7f7f7"/>
    <path d="M115.42,204.71c.48-.49,1.09-.73,1.84-.73,1.42-.02,2.42,1.09,2.39,2.41,0,.18-.01.34-.04.48h-3.85c.03.38.18.69.47.95s.65.38,1.07.38c.64,0,1.13-.28,1.49-.85l.75.55c-.22.4-.54.71-.95.93-.41.22-.84.33-1.3.33-.75,0-1.37-.25-1.86-.74-.49-.49-.74-1.1-.74-1.84s.24-1.37.72-1.86ZM118.62,206.09c-.03-.35-.18-.64-.43-.86-.26-.22-.57-.33-.93-.33-.38,0-.7.11-.97.33-.27.22-.43.51-.5.86h2.83Z" fill="#f7f7f7"/>
    <path d="M121.9,209.04h-1.03v-4.97h1.03v.68c.27-.52.7-.78,1.29-.78.23,0,.49.05.59.09l.09.03-.11.94c-.21-.08-.41-.11-.61-.11-.31,0-.57.08-.83.28s-.43.6-.43,1.13v2.71Z" fill="#f7f7f7"/>
    <path d="M124.73,202.41c0-.19.06-.34.18-.46.12-.12.27-.18.46-.18s.34.06.46.18c.12.12.18.27.18.46s-.06.34-.18.46-.27.18-.46.18-.34-.06-.46-.18c-.12-.12-.18-.27-.18-.46ZM125.87,209.04h-1.02v-4.97h1.02v4.97Z" fill="#f7f7f7"/>
    <path d="M127.81,204.71c.48-.49,1.09-.73,1.84-.73,1.42-.02,2.42,1.09,2.39,2.41,0,.18-.01.34-.04.48h-3.85c.03.38.18.69.47.95s.65.38,1.07.38c.64,0,1.13-.28,1.49-.85l.75.55c-.22.4-.54.71-.95.93-.41.22-.84.33-1.3.33-.75,0-1.37-.25-1.86-.74-.49-.49-.74-1.1-.74-1.84s.24-1.37.72-1.86ZM131,206.09c-.03-.35-.18-.64-.43-.86-.26-.22-.57-.33-.93-.33-.38,0-.7.11-.97.33-.27.22-.43.51-.5.86h2.83Z" fill="#f7f7f7"/>
    <path d="M134.28,209.04h-1.02v-4.97h1.03v.63c.1-.15.24-.29.49-.46.24-.16.62-.27,1.04-.27.67,0,1.18.19,1.54.56.36.38.54.88.54,1.5v3.02h-1.02v-2.8c0-.82-.45-1.3-1.22-1.3-.39,0-.72.11-.98.35-.26.23-.39.55-.39.95v2.8Z" fill="#f7f7f7"/>
    <path d="M139.78,208.4c-.5-.5-.75-1.11-.75-1.84-.03-1.42,1.21-2.61,2.67-2.58.97,0,1.79.51,2.26,1.36l-.79.54c-.31-.58-.88-.94-1.49-.94-.47,0-.86.15-1.16.46-.3.31-.46.7-.46,1.16s.15.85.46,1.16c.31.32.68.47,1.14.47.64,0,1.18-.34,1.53-.93l.77.54c-.23.42-.55.74-.95.99s-.85.36-1.34.36c-.75,0-1.38-.25-1.88-.75Z" fill="#f7f7f7"/>
    <path d="M145.39,204.71c.48-.49,1.09-.73,1.84-.73,1.42-.02,2.42,1.09,2.39,2.41,0,.18-.02.34-.04.48h-3.85c.03.38.18.69.47.95.29.25.65.38,1.07.38.64,0,1.13-.28,1.49-.85l.76.55c-.22.4-.54.71-.95.93-.41.22-.84.33-1.3.33-.75,0-1.37-.25-1.86-.74s-.74-1.1-.74-1.84.24-1.37.72-1.86ZM148.58,206.09c-.03-.35-.18-.64-.43-.86-.26-.22-.57-.33-.93-.33-.38,0-.7.11-.97.33-.27.22-.43.51-.5.86h2.83Z" fill="#f7f7f7"/>
    <path d="M153.27,209.04v-4.97h1.03v.63c.1-.15.24-.29.48-.46.24-.16.61-.27,1.02-.27.83,0,1.44.34,1.77.93.16-.26.4-.49.71-.66.31-.18.67-.26,1.07-.26.65,0,1.15.19,1.5.56.36.38.53.87.53,1.49v3.02h-1.03v-2.8c0-.82-.44-1.3-1.17-1.3-.38,0-.69.11-.94.33-.25.22-.39.53-.4.91v2.86h-1.03v-2.8c0-.82-.44-1.3-1.17-1.3-.38,0-.7.11-.96.35-.26.23-.39.55-.39.95v2.8h-1.03Z" fill="#f7f7f7"/>
    <path d="M162.82,204.08h1.02v2.8c0,.82.45,1.3,1.21,1.3.4,0,.74-.12,1-.35.26-.23.39-.55.39-.95v-2.8h1.02v4.97h-1.03v-.63c-.1.15-.24.29-.49.46-.25.17-.64.27-1.07.27-.66,0-1.17-.19-1.53-.56-.36-.37-.54-.87-.54-1.49v-3.02Z" fill="#f7f7f7"/>
    <path d="M170.07,201.76v7.28h-1.02v-7.28h1.02Z" fill="#f7f7f7"/>
    <path d="M171.94,204.95h-.88v-.87h.9v-1.59h1v1.59h1.58v.87h-1.57v2.48c0,.52.29.79.81.79.27,0,.54-.06.81-.17l.13.88c-.28.14-.64.22-1.09.22-.52,0-.94-.14-1.24-.42-.31-.28-.46-.67-.46-1.17v-2.61Z" fill="#f7f7f7"/>
    <path d="M175.57,202.41c0-.19.06-.34.18-.46.12-.12.27-.18.46-.18s.34.06.46.18c.12.12.18.27.18.46s-.06.34-.18.46-.27.18-.46.18-.34-.06-.46-.18-.18-.27-.18-.46ZM176.71,209.04h-1.02v-4.97h1.02v4.97Z" fill="#f7f7f7"/>
    <path d="M178.28,211.11v-7.04h1.02v.68c.41-.52,1-.78,1.77-.78.71,0,1.3.24,1.78.73.48.49.71,1.12.71,1.88s-.24,1.37-.71,1.85c-.48.48-1.07.71-1.79.71-.77,0-1.36-.26-1.77-.78v2.75h-1.02ZM179.78,207.75c.31.32.7.48,1.17.48s.85-.16,1.15-.47.44-.7.44-1.17-.15-.87-.44-1.2c-.29-.33-.68-.49-1.15-.49s-.86.17-1.17.5c-.32.33-.47.73-.47,1.19s.16.85.47,1.16Z" fill="#f7f7f7"/>
    <path d="M185.81,201.76v7.28h-1.02v-7.28h1.02Z" fill="#f7f7f7"/>
    <path d="M187.66,206.49c.4-.29.93-.43,1.58-.43.51,0,.93.08,1.25.23v-.27c0-.32-.12-.57-.35-.78-.23-.2-.54-.3-.92-.3-.56,0-1.09.3-1.42.69l-.65-.64c.21-.27.51-.51.89-.71.38-.2.78-.3,1.2-.3.7,0,1.26.18,1.67.53.41.35.62.83.62,1.43v3.11h-1v-.64c-.3.47-.88.75-1.55.75-.56,0-1.02-.13-1.38-.4-.36-.27-.54-.64-.54-1.11s.2-.84.61-1.14ZM188.38,208.12c.19.13.44.19.74.19.4,0,.72-.12.99-.36.26-.24.39-.53.39-.88-.24-.12-.73-.24-1.23-.24-.7,0-1.18.24-1.18.75,0,.22.1.39.29.52Z" fill="#f7f7f7"/>
    <path d="M194.39,209.11l-2.14-5.04h1.13l1.55,3.91,1.54-3.91h1.13l-2.38,5.6c-.18.41-.31.66-.54.94-.12.14-.24.25-.37.33-.27.17-.65.27-1.13.27-.32,0-.59-.06-.82-.18l.11-.85c.19.09.41.13.67.13.32,0,.55-.07.72-.22.17-.15.32-.38.43-.69l.11-.29Z" fill="#f7f7f7"/>
    <path d="M198.72,204.71c.48-.49,1.09-.73,1.84-.73,1.42-.02,2.42,1.09,2.39,2.41,0,.18-.01.34-.04.48h-3.85c.03.38.18.69.47.95s.65.38,1.07.38c.64,0,1.13-.28,1.49-.85l.75.55c-.22.4-.54.71-.95.93-.41.22-.84.33-1.3.33-.75,0-1.37-.25-1.86-.74-.49-.49-.74-1.1-.74-1.84s.24-1.37.72-1.86ZM201.91,206.09c-.03-.35-.18-.64-.43-.86-.26-.22-.57-.33-.93-.33-.38,0-.7.11-.97.33-.27.22-.43.51-.5.86h2.83Z" fill="#f7f7f7"/>
    <path d="M205.2,209.04h-1.03v-4.97h1.03v.68c.27-.52.7-.78,1.29-.78.23,0,.49.05.59.09l.09.03-.11.94c-.21-.08-.41-.11-.61-.11-.31,0-.57.08-.83.28s-.43.6-.43,1.13v2.71Z" fill="#f7f7f7"/>
  </g>
</svg>