<?xml version="1.0" encoding="UTF-8"?>
<svg id="Layer_1" xmlns="http://www.w3.org/2000/svg" baseProfile="tiny" version="1.2" viewBox="0 0 63.9 63.9">
  <!-- Generator: Adobe Illustrator 29.8.2, SVG Export Plug-In . SVG Version: 2.1.1 Build 3)  -->
  <g>
    <path d="M13.17,39.47c0,2.57,1.74,4.82,4.23,5.43,3.01.74,7.75,1.49,14.56,1.49h-.02c6.81,0,11.54-.75,14.56-1.49,2.49-.61,4.23-2.86,4.23-5.43v-7.65c0-2.57-1.74-4.82-4.23-5.43-3.01-.74-7.75-1.49-14.56-1.49h.02c-6.81,0-11.54.75-14.56,1.49-2.49.61-4.23,2.86-4.23,5.43v7.65Z" fill="none" stroke="#f7f7f7" stroke-linecap="round" stroke-linejoin="round" stroke-width="1.41"/>
    <path d="M13.17,39.47h-.99c-.56,0-1.02-.45-1.02-1.02v-5.66c0-.56.45-1.02,1.02-1.02h.99" fill="none" stroke="#f7f7f7" stroke-linecap="round" stroke-linejoin="round" stroke-width="1.41"/>
    <path d="M50.73,39.47h.99c.56,0,1.02-.45,1.02-1.02v-5.66c0-.56-.45-1.02-1.02-1.02h-.99" fill="none" stroke="#f7f7f7" stroke-linecap="round" stroke-linejoin="round" stroke-width="1.41"/>
    <line x1="28.23" y1="27.99" x2="35.67" y2="27.99" fill="none" stroke="#f7f7f7" stroke-linecap="round" stroke-linejoin="round" stroke-width="1.41"/>
    <path d="M50.73,31.82v-3.14c0-2.57-1.74-4.82-4.23-5.43-3.01-.74-7.75-1.49-14.56-1.49h.02c-6.81,0-11.54.75-14.56,1.49-2.49.61-4.23,2.86-4.23,5.43v3.14" fill="none" stroke="#f7f7f7" stroke-linecap="round" stroke-linejoin="round" stroke-width="1.41"/>
    <path d="M45.59,23.04s-1.52-7.78-13.27-7.78c-11.75,0-13.31,7.63-13.31,7.63" fill="none" stroke="#f7f7f7" stroke-linecap="round" stroke-linejoin="round" stroke-width="1.41"/>
    <path d="M48.57,24.25s-.96-11.37-16.24-11.37c-15.28,0-16.24,10.88-16.24,10.88" fill="none" stroke="#f7f7f7" stroke-linecap="round" stroke-linejoin="round" stroke-width="1.41"/>
  </g>
  <g>
    <circle cx="31.95" cy="31.95" r="29.96" fill="none" stroke="#f7f7f7" stroke-linecap="round" stroke-linejoin="round" stroke-width="3.99"/>
    <line x1="52.73" y1="54.14" x2="10.44" y2="11.85" fill="none" stroke="#f7f7f7" stroke-linecap="round" stroke-linejoin="round" stroke-width="3.99"/>
  </g>
</svg>