<?xml version="1.0" encoding="UTF-8"?>
<svg id="Layer_1" xmlns="http://www.w3.org/2000/svg" baseProfile="tiny" version="1.2" viewBox="0 0 40.4 65.69">
  <!-- Generator: Adobe Illustrator 30.0.0, SVG Export Plug-In . SVG Version: 2.1.1 Build 123)  -->
  <polygon points="15.61 7.86 19.27 4.2 22.93 7.86 15.61 7.86" fill="#f7f7f7"/>
  <polygon points="22.93 56.77 19.27 60.43 15.61 56.77 22.93 56.77" fill="#f7f7f7"/>
  <polygon points="33.72 28.65 37.38 32.31 33.72 35.98 33.72 28.65" fill="#f7f7f7"/>
  <polygon points="4.81 35.98 1.15 32.31 4.81 28.65 4.81 35.98" fill="#f7f7f7"/>
  <path d="M12.89,24.88l5.7,5.7-1.57-1.57c-.47-.47-1.24-.47-1.71,0s-.48,1.24,0,1.71l1.57,1.57-.71-.71c-.47-.47-1.24-.47-1.71,0-.47.47-.48,1.24,0,1.71l1.14,1.14.43.43-.43-.43c-.47-.47-1.24-.47-1.71,0s-.48,1.24,0,1.71l4.43,4.43h0c.76.76,1.76,1.14,2.76,1.14,1.21,0,2.3.49,3.09,1.28,2.85,0,5.15-2.31,5.15-5.15h0l-2.17-2.17c.43-1.62.02-3.41-1.24-4.68l-4.26-6.37c-1.11.74-1.42,2.25-.67,3.36h0l1.81,2.71-.31.31-7.83-7.83c-.47-.47-1.24-.47-1.71,0-.47.47-.48,1.24,0,1.71h-.05Z" fill="#f7f7f7"/>
</svg>