<?xml version="1.0" encoding="UTF-8"?>
<svg id="Layer_1" xmlns="http://www.w3.org/2000/svg" baseProfile="tiny" version="1.2" viewBox="0 0 238.63 85.51">
  <!-- Generator: Adobe Illustrator 29.8.2, SVG Export Plug-In . SVG Version: 2.1.1 Build 3)  -->
  <path d="M50.35,32.29c-1.19-.66-2.12-1.57-2.8-2.77-.68-1.18-1.03-2.52-1.03-4.03s.35-2.84,1.03-4.03c.68-1.2,1.61-2.13,2.8-2.8,1.2-.66,2.53-.99,4-.99,2.22,0,4.23.83,5.62,2.2,1.37,1.38,2.22,3.4,2.22,5.63,0,2.46-.96,4.53-2.61,5.95l1.81,2.45-1.74,1.21-1.87-2.52c-1.05.47-2.19.7-3.43.7-1.47,0-2.8-.32-4-.98v-.02ZM50.48,21.45c-.99,1.04-1.5,2.38-1.5,4.02s.49,3.02,1.49,4.04c.99,1.03,2.29,1.54,3.89,1.54.71,0,1.4-.11,2.04-.33l-1.71-2.31,1.72-1.25,1.79,2.42c1.03-1.03,1.54-2.4,1.54-4.11s-.49-2.99-1.47-4.03c-.99-1.04-2.29-1.55-3.91-1.55s-2.88.53-3.88,1.56Z" fill="#f7f7f7"/>
  <path d="M77.31,17.89h2.35l3.78,13.06,3.67-12.81h2.51l3.67,12.81,3.76-13.06h2.36l-4.22,15.17h-3.79l-3.05-11.24-3.04,11.24h-3.79l-4.22-15.17h.01Z" fill="#f7f7f7"/>
  <path d="M113.62,33.06v-15.17h10.63v2.13h-8.29v4.18h7.11v2.13h-7.11v4.59h8.52v2.13h-10.87.01Z" fill="#f7f7f7"/>
  <path d="M56.04,68.54h-2.5l6.27-15.17h2.55l6.27,15.17h-2.5l-1.21-3.16h-7.66l-1.21,3.16h-.01ZM57.95,63.41h6.25l-3.13-7.43-3.13,7.43h.01Z" fill="#f7f7f7"/>
  <path d="M89.88,64.09c.76,1.56,2.2,2.55,4.18,2.55.89,0,1.64-.2,2.23-.59.59-.39.88-.92.88-1.58,0-.59-.27-1.07-.79-1.43-.52-.35-1.41-.73-2.65-1.12-.66-.21-1.22-.41-1.65-.58-.45-.17-.91-.39-1.38-.66-.48-.26-.86-.54-1.14-.84-.55-.58-.96-1.45-.95-2.49.03-2.77,2.61-4.22,5.16-4.22,1.31,0,2.42.29,3.35.88s1.62,1.34,2.09,2.25l-1.82,1.27c-.36-.66-.85-1.2-1.46-1.63-.62-.42-1.34-.64-2.16-.64-.77,0-1.43.19-1.98.56s-.83.88-.83,1.52c0,1.28,1.14,1.66,3.11,2.33.12.04.17.07.28.09,1.44.49,2.45.89,3,1.2,1.08.59,1.77,1.36,2.02,2.3.1.36.16.75.16,1.18,0,1.38-.7,2.56-1.74,3.24s-2.35,1.06-3.69,1.06c-1.43,0-2.67-.32-3.71-.96-1.05-.64-1.81-1.46-2.27-2.48l1.75-1.22h.01Z" fill="#f7f7f7"/>
  <path d="M120.2,53.38h6.1c1.49,0,2.81.32,4.01.98,1.18.66,2.11,1.56,2.78,2.71.67,1.16,1.01,2.46,1.01,3.89.08,4.29-3.37,7.65-7.8,7.57h-6.1v-15.16h0ZM122.54,66.41h3.72c3.16.04,5.43-2.42,5.37-5.45,0-1.55-.5-2.86-1.5-3.91-.99-1.05-2.29-1.57-3.88-1.57h-3.72v10.94h0Z" fill="#f7f7f7"/>
  <rect x="42.13" y="12.26" width="25.23" height="25.23" rx="5.52" ry="5.52" fill="none" stroke="#f7f7f7" stroke-miterlimit="10" stroke-width=".94"/>
  <rect x="74.45" y="12.26" width="25.23" height="25.23" rx="5.52" ry="5.52" fill="none" stroke="#f7f7f7" stroke-miterlimit="10" stroke-width=".94"/>
  <rect x="106.77" y="12.26" width="25.23" height="25.23" rx="5.52" ry="5.52" fill="none" stroke="#f7f7f7" stroke-miterlimit="10" stroke-width=".94"/>
  <rect x="49.22" y="48.52" width="25.23" height="25.23" rx="5.52" ry="5.52" fill="none" stroke="#f7f7f7" stroke-miterlimit="10" stroke-width=".94"/>
  <rect x="81.54" y="48.52" width="25.23" height="25.23" rx="5.52" ry="5.52" fill="none" stroke="#f7f7f7" stroke-miterlimit="10" stroke-width=".94"/>
  <rect x="113.87" y="48.52" width="25.23" height="25.23" rx="5.52" ry="5.52" fill="none" stroke="#f7f7f7" stroke-miterlimit="10" stroke-width=".94"/>
  <path id="_x3C_Path_x3E_" d="M183.05,20.51c-7.88,0-14.29,6.41-14.29,14.29v16.04c0,3.41,1.24,6.72,3.47,9.31,2.73,3.17,6.67,4.98,10.82,4.98,7.88,0,14.29-6.41,14.29-14.29v-16.04c0-7.88-6.41-14.29-14.29-14.29h0ZM184.58,30.02v5.62c0,.85-.69,1.54-1.54,1.54s-1.54-.69-1.54-1.54v-5.62c0-.84.69-1.54,1.54-1.54s1.54.69,1.54,1.54ZM195.2,50.84c0,6.7-5.45,12.15-12.15,12.15-3.52,0-6.87-1.54-9.2-4.24-1.9-2.21-2.95-5.02-2.95-7.91v-16.04c0-6.45,5.07-11.76,11.43-12.13v4.47c-1.29.32-2.25,1.49-2.25,2.88v5.62c0,1.39.96,2.56,2.25,2.88v5.42h1.43v-5.42c1.29-.32,2.25-1.49,2.25-2.88v-5.62c0-1.39-.96-2.56-2.25-2.88v-4.47c6.37.37,11.43,5.67,11.43,12.13v16.04h.01Z" fill="#f7f7f7"/>
  <g isolation="isolate">
    <text transform="translate(144.87 49.31)" fill="#f7f7f7" font-family="Mundial-Regular, Mundial" font-size="22.86" isolation="isolate" letter-spacing=".61em"><tspan x="0" y="0">+</tspan></text>
  </g>
</svg>