<?xml version="1.0" encoding="UTF-8"?>
<svg id="Layer_1" xmlns="http://www.w3.org/2000/svg" baseProfile="tiny" version="1.2" viewBox="0 0 54.07 43.91">
  <!-- Generator: Adobe Illustrator 29.8.2, SVG Export Plug-In . SVG Version: 2.1.1 Build 3)  -->
  <path d="M8.25,31.79c0,2.57,1.74,4.82,4.23,5.43,3.01.74,7.75,1.49,14.56,1.49h-.02c6.81,0,11.54-.75,14.56-1.49,2.49-.61,4.23-2.86,4.23-5.43v-7.65c0-2.57-1.74-4.82-4.23-5.43-3.01-.74-7.75-1.49-14.56-1.49h.02c-6.81,0-11.54.75-14.56,1.49-2.49.61-4.23,2.86-4.23,5.43v7.65Z" fill="none" stroke="#f7f7f7" stroke-linecap="round" stroke-linejoin="round" stroke-width="1.41"/>
  <path d="M8.25,31.79h-.99c-.56,0-1.02-.45-1.02-1.02v-5.66c0-.56.45-1.02,1.02-1.02h.99" fill="none" stroke="#f7f7f7" stroke-linecap="round" stroke-linejoin="round" stroke-width="1.41"/>
  <path d="M45.82,31.79h.99c.56,0,1.02-.45,1.02-1.02v-5.66c0-.56-.45-1.02-1.02-1.02h-.99" fill="none" stroke="#f7f7f7" stroke-linecap="round" stroke-linejoin="round" stroke-width="1.41"/>
  <line x1="23.32" y1="20.31" x2="30.75" y2="20.31" fill="none" stroke="#f7f7f7" stroke-linecap="round" stroke-linejoin="round" stroke-width="1.41"/>
  <path d="M45.82,24.14v-3.14c0-2.57-1.74-4.82-4.23-5.43-3.01-.74-7.75-1.49-14.56-1.49h.02c-6.81,0-11.54.75-14.56,1.49-2.49.61-4.23,2.86-4.23,5.43v3.14" fill="none" stroke="#f7f7f7" stroke-linecap="round" stroke-linejoin="round" stroke-width="1.41"/>
  <path d="M40.68,15.37s-1.52-7.78-13.27-7.78c-11.75,0-13.31,7.63-13.31,7.63" fill="none" stroke="#f7f7f7" stroke-linecap="round" stroke-linejoin="round" stroke-width="1.41"/>
  <path d="M43.65,16.57s-.96-11.37-16.24-11.37c-15.28,0-16.24,10.88-16.24,10.88" fill="none" stroke="#f7f7f7" stroke-linecap="round" stroke-linejoin="round" stroke-width="1.41"/>
</svg>