# Blender 5.1.2
# www.blender.org
mtllib frame_controller_quadrant_disk.mtl
# open-brush-quadrant-texture-scale: 0.4
# open-brush-quadrant-uv-rotation-degrees: 270
# open-brush-quadrant-uv-alignment: south
# open-brush-quadrant-uv-radial-offset: 0.15
o Quadrant_East
g Quadrant_East
v 0.466690 0.000000 0.353553
v 1.880904 0.000000 1.767767
v 1.968708 0.000000 1.844596
v 2.055343 0.000000 1.898304
v 2.140809 0.000000 1.928894
v 2.225107 0.000000 1.936363
v 2.308236 0.000000 1.920713
v 2.390196 0.000000 1.881944
v 2.470987 0.000000 1.820055
v 2.550609 0.000000 1.735046
v 2.637833 0.000000 1.607875
v 2.718335 0.000000 1.476258
v 2.791884 0.000000 1.340553
v 2.858268 0.000000 1.201136
v 2.917299 0.000000 1.058389
v 2.968807 0.000000 0.912708
v 3.012643 0.000000 0.764494
v 3.048682 0.000000 0.614158
v 3.076820 0.000000 0.462117
v 3.096977 0.000000 0.308793
v 3.109094 0.000000 0.154611
v 3.113137 0.000000 0.000000
v 3.109094 0.000000 -0.154611
v 3.096977 0.000000 -0.308793
v 3.076820 0.000000 -0.462117
v 3.048682 0.000000 -0.614158
v 3.012643 0.000000 -0.764494
v 2.968807 0.000000 -0.912708
v 2.917299 0.000000 -1.058389
v 2.858268 0.000000 -1.201136
v 2.791884 0.000000 -1.340553
v 2.718335 0.000000 -1.476258
v 2.637833 0.000000 -1.607875
v 2.550609 0.000000 -1.735046
v 2.470987 0.000000 -1.820055
v 2.390196 0.000000 -1.881944
v 2.308236 0.000000 -1.920713
v 2.225107 0.000000 -1.936363
v 2.140809 0.000000 -1.928894
v 2.055343 0.000000 -1.898304
v 1.968708 0.000000 -1.844596
v 1.880904 0.000000 -1.767767
v 0.466690 0.000000 -0.353553
v 0.389351 0.000000 -0.265165
v 0.334108 0.000000 -0.176777
v 0.300962 0.000000 -0.088388
v 0.289914 0.000000 0.000000
v 0.300962 0.000000 0.088388
v 0.334108 0.000000 0.176777
v 0.389351 0.000000 0.265165
vn -0.0000 1.0000 -0.0000
vt -0.176157 0.323223
vt 0.354173 -0.207107
vt 0.398073 -0.245520
vt 0.441385 -0.272370
vt 0.484113 -0.287657
vt 0.526250 -0.291385
vt 0.567803 -0.283547
vt 0.608765 -0.264150
vt 0.649143 -0.233187
vt 0.688930 -0.190665
vt 0.721370 -0.139037
vt 0.751255 -0.085890
vt 0.778512 -0.031347
vt 0.803075 0.024458
vt 0.824890 0.081395
vt 0.843903 0.139328
vt 0.860065 0.198120
vt 0.873342 0.257630
vt 0.883703 0.317715
vt 0.891120 0.378235
vt 0.895578 0.439045
vt 0.897065 0.500000
vt 0.895578 0.560955
vt 0.891120 0.621765
vt 0.883703 0.682285
vt 0.873342 0.742370
vt 0.860065 0.801880
vt 0.843903 0.860672
vt 0.824890 0.918605
vt 0.803075 0.975543
vt 0.778512 1.031347
vt 0.751255 1.085890
vt 0.721370 1.139038
vt 0.688930 1.190665
vt 0.649143 1.233187
vt 0.608765 1.264150
vt 0.567803 1.283548
vt 0.526250 1.291385
vt 0.484113 1.287657
vt 0.441385 1.272370
vt 0.398073 1.245520
vt 0.354173 1.207107
vt -0.176157 0.676778
vt -0.214827 0.632583
vt -0.242450 0.588388
vt -0.259022 0.544195
vt -0.264545 0.500000
vt -0.259022 0.455805
vt -0.242450 0.411613
vt -0.214827 0.367418
s 0
usemtl Quadrant_East_Material
f 1/1/1 2/2/1 3/3/1 4/4/1 5/5/1 6/6/1 7/7/1 8/8/1 9/9/1 10/10/1 11/11/1 12/12/1 13/13/1 14/14/1 15/15/1 16/16/1 17/17/1 18/18/1 19/19/1 20/20/1 21/21/1 22/22/1 23/23/1 24/24/1 25/25/1 26/26/1 27/27/1 28/28/1 29/29/1 30/30/1 31/31/1 32/32/1 33/33/1 34/34/1 35/35/1 36/36/1 37/37/1 38/38/1 39/39/1 40/40/1 41/41/1 42/42/1 43/43/1 44/44/1 45/45/1 46/46/1 47/47/1 48/48/1 49/49/1 50/50/1
o Quadrant_North
g Quadrant_North
v 0.353553 0.000000 -0.466690
v 1.767767 0.000000 -1.880904
v 1.844595 0.000000 -1.968708
v 1.898304 0.000000 -2.055343
v 1.928894 0.000000 -2.140809
v 1.936363 0.000000 -2.225107
v 1.920713 0.000000 -2.308236
v 1.881944 0.000000 -2.390196
v 1.820054 0.000000 -2.470987
v 1.735046 0.000000 -2.550609
v 1.607875 0.000000 -2.637833
v 1.476257 0.000000 -2.718335
v 1.340553 0.000000 -2.791884
v 1.201136 0.000000 -2.858268
v 1.058389 0.000000 -2.917299
v 0.912707 0.000000 -2.968807
v 0.764494 0.000000 -3.012643
v 0.614158 0.000000 -3.048682
v 0.462117 0.000000 -3.076820
v 0.308793 0.000000 -3.096977
v 0.154611 0.000000 -3.109094
v -0.000000 0.000000 -3.113137
v -0.154611 0.000000 -3.109094
v -0.308793 0.000000 -3.096977
v -0.462117 0.000000 -3.076820
v -0.614158 0.000000 -3.048682
v -0.764494 0.000000 -3.012643
v -0.912708 0.000000 -2.968807
v -1.058389 0.000000 -2.917299
v -1.201136 0.000000 -2.858268
v -1.340554 0.000000 -2.791884
v -1.476258 0.000000 -2.718335
v -1.607875 0.000000 -2.637833
v -1.735046 0.000000 -2.550609
v -1.820055 0.000000 -2.470987
v -1.881944 0.000000 -2.390196
v -1.920714 0.000000 -2.308236
v -1.936363 0.000000 -2.225107
v -1.928894 0.000000 -2.140809
v -1.898305 0.000000 -2.055343
v -1.844596 0.000000 -1.968708
v -1.767767 0.000000 -1.880904
v -0.353553 0.000000 -0.466690
v -0.265165 0.000000 -0.389351
v -0.176777 0.000000 -0.334108
v -0.088388 0.000000 -0.300962
v -0.000000 0.000000 -0.289914
v 0.088388 0.000000 -0.300962
v 0.176777 0.000000 -0.334108
v 0.265165 0.000000 -0.389351
vn -0.0000 1.0000 -0.0000
vt 0.643037 -0.142417
vt 1.173367 0.387913
vt 1.211780 0.431813
vt 1.238630 0.475125
vt 1.253917 0.517853
vt 1.257645 0.559990
vt 1.249807 0.601543
vt 1.230410 0.642505
vt 1.199447 0.682883
vt 1.156925 0.722670
vt 1.105297 0.755110
vt 1.052150 0.784995
vt 0.997607 0.812252
vt 0.941802 0.836815
vt 0.884865 0.858630
vt 0.826932 0.877643
vt 0.768140 0.893805
vt 0.708630 0.907082
vt 0.648545 0.917443
vt 0.588025 0.924860
vt 0.527215 0.929318
vt 0.466260 0.930805
vt 0.405305 0.929318
vt 0.344495 0.924860
vt 0.283975 0.917443
vt 0.223890 0.907082
vt 0.164380 0.893805
vt 0.105588 0.877643
vt 0.047655 0.858630
vt -0.009283 0.836815
vt -0.065087 0.812252
vt -0.119630 0.784995
vt -0.172778 0.755110
vt -0.224405 0.722670
vt -0.266927 0.682883
vt -0.297890 0.642505
vt -0.317288 0.601543
vt -0.325125 0.559990
vt -0.321397 0.517853
vt -0.306110 0.475125
vt -0.279260 0.431813
vt -0.240847 0.387913
vt 0.289482 -0.142417
vt 0.333677 -0.181087
vt 0.377872 -0.208710
vt 0.422065 -0.225282
vt 0.466260 -0.230805
vt 0.510455 -0.225282
vt 0.554647 -0.208710
vt 0.598842 -0.181087
s 0
usemtl Quadrant_North_Material
f 51/51/2 52/52/2 53/53/2 54/54/2 55/55/2 56/56/2 57/57/2 58/58/2 59/59/2 60/60/2 61/61/2 62/62/2 63/63/2 64/64/2 65/65/2 66/66/2 67/67/2 68/68/2 69/69/2 70/70/2 71/71/2 72/72/2 73/73/2 74/74/2 75/75/2 76/76/2 77/77/2 78/78/2 79/79/2 80/80/2 81/81/2 82/82/2 83/83/2 84/84/2 85/85/2 86/86/2 87/87/2 88/88/2 89/89/2 90/90/2 91/91/2 92/92/2 93/93/2 94/94/2 95/95/2 96/96/2 97/97/2 98/98/2 99/99/2 100/100/2
o Quadrant_West
g Quadrant_West
v -0.466690 0.000000 -0.353553
v -1.880904 0.000000 -1.767767
v -1.968708 0.000000 -1.844595
v -2.055343 0.000000 -1.898304
v -2.140810 0.000000 -1.928894
v -2.225107 0.000000 -1.936363
v -2.308236 0.000000 -1.920713
v -2.390196 0.000000 -1.881944
v -2.470987 0.000000 -1.820054
v -2.550609 0.000000 -1.735045
v -2.637834 0.000000 -1.607875
v -2.718335 0.000000 -1.476257
v -2.791884 0.000000 -1.340553
v -2.858268 0.000000 -1.201136
v -2.917299 0.000000 -1.058389
v -2.968807 0.000000 -0.912707
v -3.012643 0.000000 -0.764493
v -3.048682 0.000000 -0.614158
v -3.076820 0.000000 -0.462117
v -3.096977 0.000000 -0.308793
v -3.109094 0.000000 -0.154611
v -3.113137 0.000000 0.000000
v -3.109094 0.000000 0.154612
v -3.096977 0.000000 0.308793
v -3.076820 0.000000 0.462117
v -3.048682 0.000000 0.614158
v -3.012643 0.000000 0.764494
v -2.968807 0.000000 0.912708
v -2.917299 0.000000 1.058389
v -2.858268 0.000000 1.201136
v -2.791884 0.000000 1.340554
v -2.718335 0.000000 1.476258
v -2.637833 0.000000 1.607876
v -2.550609 0.000000 1.735046
v -2.470987 0.000000 1.820055
v -2.390195 0.000000 1.881944
v -2.308236 0.000000 1.920714
v -2.225107 0.000000 1.936363
v -2.140809 0.000000 1.928894
v -2.055343 0.000000 1.898305
v -1.968708 0.000000 1.844596
v -1.880904 0.000000 1.767767
v -0.466690 0.000000 0.353553
v -0.389351 0.000000 0.265165
v -0.334108 0.000000 0.176777
v -0.300962 0.000000 0.088388
v -0.289914 0.000000 0.000000
v -0.300962 0.000000 -0.088388
v -0.334108 0.000000 -0.176777
v -0.389351 0.000000 -0.265165
vn -0.0000 1.0000 -0.0000
vt 1.108677 0.676777
vt 0.578347 1.207107
vt 0.534447 1.245520
vt 0.491135 1.272370
vt 0.448407 1.287657
vt 0.406270 1.291385
vt 0.364717 1.283547
vt 0.323755 1.264150
vt 0.283377 1.233187
vt 0.243590 1.190665
vt 0.211150 1.139037
vt 0.181265 1.085890
vt 0.154008 1.031347
vt 0.129445 0.975542
vt 0.107630 0.918605
vt 0.088617 0.860672
vt 0.072455 0.801880
vt 0.059178 0.742370
vt 0.048817 0.682285
vt 0.041400 0.621765
vt 0.036942 0.560955
vt 0.035455 0.500000
vt 0.036942 0.439045
vt 0.041400 0.378235
vt 0.048817 0.317715
vt 0.059178 0.257630
vt 0.072455 0.198120
vt 0.088617 0.139328
vt 0.107630 0.081395
vt 0.129445 0.024457
vt 0.154008 -0.031347
vt 0.181265 -0.085890
vt 0.211150 -0.139038
vt 0.243590 -0.190665
vt 0.283377 -0.233187
vt 0.323755 -0.264150
vt 0.364717 -0.283548
vt 0.406270 -0.291385
vt 0.448407 -0.287657
vt 0.491135 -0.272370
vt 0.534447 -0.245520
vt 0.578347 -0.207107
vt 1.108677 0.323222
vt 1.147347 0.367417
vt 1.174970 0.411612
vt 1.191542 0.455805
vt 1.197065 0.500000
vt 1.191542 0.544195
vt 1.174970 0.588387
vt 1.147347 0.632582
s 0
usemtl Quadrant_West_Material
f 101/101/3 102/102/3 103/103/3 104/104/3 105/105/3 106/106/3 107/107/3 108/108/3 109/109/3 110/110/3 111/111/3 112/112/3 113/113/3 114/114/3 115/115/3 116/116/3 117/117/3 118/118/3 119/119/3 120/120/3 121/121/3 122/122/3 123/123/3 124/124/3 125/125/3 126/126/3 127/127/3 128/128/3 129/129/3 130/130/3 131/131/3 132/132/3 133/133/3 134/134/3 135/135/3 136/136/3 137/137/3 138/138/3 139/139/3 140/140/3 141/141/3 142/142/3 143/143/3 144/144/3 145/145/3 146/146/3 147/147/3 148/148/3 149/149/3 150/150/3
o Quadrant_South
g Quadrant_South
v -0.353553 0.000000 0.466690
v -1.767767 0.000000 1.880904
v -1.844596 0.000000 1.968708
v -1.898304 0.000000 2.055343
v -1.928894 0.000000 2.140809
v -1.936363 0.000000 2.225107
v -1.920713 0.000000 2.308236
v -1.881944 0.000000 2.390196
v -1.820055 0.000000 2.470987
v -1.735046 0.000000 2.550609
v -1.607875 0.000000 2.637833
v -1.476258 0.000000 2.718335
v -1.340553 0.000000 2.791884
v -1.201136 0.000000 2.858268
v -1.058389 0.000000 2.917299
v -0.912708 0.000000 2.968807
v -0.764494 0.000000 3.012643
v -0.614158 0.000000 3.048682
v -0.462117 0.000000 3.076820
v -0.308793 0.000000 3.096977
v -0.154611 0.000000 3.109094
v 0.000000 0.000000 3.113137
v 0.154611 0.000000 3.109094
v 0.308793 0.000000 3.096977
v 0.462117 0.000000 3.076820
v 0.614158 0.000000 3.048682
v 0.764494 0.000000 3.012643
v 0.912708 0.000000 2.968807
v 1.058389 0.000000 2.917299
v 1.201136 0.000000 2.858268
v 1.340553 0.000000 2.791884
v 1.476258 0.000000 2.718335
v 1.607875 0.000000 2.637833
v 1.735046 0.000000 2.550609
v 1.820055 0.000000 2.470987
v 1.881944 0.000000 2.390196
v 1.920713 0.000000 2.308236
v 1.936363 0.000000 2.225107
v 1.928894 0.000000 2.140809
v 1.898304 0.000000 2.055343
v 1.844596 0.000000 1.968708
v 1.767767 0.000000 1.880904
v 0.353553 0.000000 0.466690
v 0.265165 0.000000 0.389351
v 0.176777 0.000000 0.334108
v 0.088388 0.000000 0.300962
v 0.000000 0.000000 0.289914
v -0.088388 0.000000 0.300962
v -0.176777 0.000000 0.334108
v -0.265165 0.000000 0.389351
vn -0.0000 1.0000 -0.0000
vt 0.289483 1.142417
vt -0.240847 0.612087
vt -0.279260 0.568187
vt -0.306110 0.524875
vt -0.321397 0.482147
vt -0.325125 0.440010
vt -0.317287 0.398457
vt -0.297890 0.357495
vt -0.266927 0.317117
vt -0.224405 0.277330
vt -0.172777 0.244890
vt -0.119630 0.215005
vt -0.065087 0.187748
vt -0.009282 0.163185
vt 0.047655 0.141370
vt 0.105588 0.122357
vt 0.164380 0.106195
vt 0.223890 0.092918
vt 0.283975 0.082557
vt 0.344495 0.075140
vt 0.405305 0.070682
vt 0.466260 0.069195
vt 0.527215 0.070682
vt 0.588025 0.075140
vt 0.648545 0.082557
vt 0.708630 0.092918
vt 0.768140 0.106195
vt 0.826932 0.122357
vt 0.884865 0.141370
vt 0.941803 0.163185
vt 0.997607 0.187748
vt 1.052150 0.215005
vt 1.105298 0.244890
vt 1.156925 0.277330
vt 1.199447 0.317117
vt 1.230410 0.357495
vt 1.249808 0.398457
vt 1.257645 0.440010
vt 1.253917 0.482147
vt 1.238630 0.524875
vt 1.211780 0.568187
vt 1.173367 0.612087
vt 0.643038 1.142417
vt 0.598843 1.181087
vt 0.554648 1.208710
vt 0.510455 1.225282
vt 0.466260 1.230805
vt 0.422065 1.225282
vt 0.377873 1.208710
vt 0.333678 1.181087
s 0
usemtl Quadrant_South_Material
f 151/151/4 152/152/4 153/153/4 154/154/4 155/155/4 156/156/4 157/157/4 158/158/4 159/159/4 160/160/4 161/161/4 162/162/4 163/163/4 164/164/4 165/165/4 166/166/4 167/167/4 168/168/4 169/169/4 170/170/4 171/171/4 172/172/4 173/173/4 174/174/4 175/175/4 176/176/4 177/177/4 178/178/4 179/179/4 180/180/4 181/181/4 182/182/4 183/183/4 184/184/4 185/185/4 186/186/4 187/187/4 188/188/4 189/189/4 190/190/4 191/191/4 192/192/4 193/193/4 194/194/4 195/195/4 196/196/4 197/197/4 198/198/4 199/199/4 200/200/4
